<?xml version="1.0" encoding="UTF-8" standalone="no"?>
<!-- Created with Inkscape (http://www.inkscape.org/) -->

<svg
   width="130.93802mm"
   height="65.371262mm"
   viewBox="0 0 130.93802 65.371261"
   version="1.1"
   id="svg5"
   xml:space="preserve"
   inkscape:version="1.2.2 (b0a84865, 2022-12-01)"
   sodipodi:docname="favicon.svg"
   xmlns:inkscape="http://www.inkscape.org/namespaces/inkscape"
   xmlns:sodipodi="http://sodipodi.sourceforge.net/DTD/sodipodi-0.dtd"
   xmlns="http://www.w3.org/2000/svg"
   xmlns:svg="http://www.w3.org/2000/svg"><sodipodi:namedview
     id="namedview7"
     pagecolor="#ffffff"
     bordercolor="#000000"
     borderopacity="0.25"
     inkscape:showpageshadow="2"
     inkscape:pageopacity="0.0"
     inkscape:pagecheckerboard="0"
     inkscape:deskcolor="#d1d1d1"
     inkscape:document-units="mm"
     showgrid="false"
     inkscape:zoom="0.914906"
     inkscape:cx="218.60169"
     inkscape:cy="260.68252"
     inkscape:window-width="1903"
     inkscape:window-height="1221"
     inkscape:window-x="436"
     inkscape:window-y="114"
     inkscape:window-maximized="0"
     inkscape:current-layer="layer1" /><defs
     id="defs2" /><g
     inkscape:label="Layer 1"
     inkscape:groupmode="layer"
     id="layer1"
     transform="translate(2.6586439,-80.88796)"><path
       style="fill:#000000;stroke-width:0.19543"
       d="M -2.6585649,113.52473 V 80.88796 H 62.810408 128.27938 v 32.63677 32.63677 h -16.9633 c -13.302259,0 -17.019194,-0.0527 -17.222253,-0.24428 -0.207153,-0.19543 -0.276859,-0.19543 -0.348516,0 -0.126899,0.34609 -4.282802,0.34609 -4.422453,0 -0.06741,-0.16707 -0.103499,-0.15163 -0.114158,0.0489 -0.02016,0.37899 -1.082061,-1.85321 -1.719957,-3.61545 -0.800509,-2.21145 -0.841836,-2.30665 -0.953129,-2.19536 -0.122079,0.12207 0.209918,1.14618 1.084028,3.34384 0.336744,0.84663 0.568965,1.58264 0.516043,1.63556 -0.0529,0.0529 0.03152,0.22395 0.187615,0.38006 0.532895,0.53289 0.283579,0.64583 -1.385905,0.62778 l -1.669745,-0.0181 -0.114368,-0.57183 c -0.0629,-0.3145 -0.200372,-0.62498 -0.305489,-0.68995 -0.173848,-0.10744 -0.107177,0.25947 0.19162,1.05455 0.07234,0.19249 -1.342163,0.24428 -6.671429,0.24428 l -6.763237,1e-5 -0.0307,-0.92829 -0.0307,-0.92829 -0.12505,0.97714 c -0.109923,0.85894 -0.138129,0.90622 -0.233161,0.39087 l -0.10811,-0.5863 -0.02928,0.53744 c -0.05789,1.06256 -0.420141,0.51494 -0.420141,-0.63515 0,-0.64492 -0.07961,-1.17258 -0.176897,-1.17258 -0.09774,0 -0.129318,0.52473 -0.07057,1.17258 0.07336,0.80901 0.03732,1.17258 -0.116248,1.17258 -0.182712,0 -0.348542,-1.35191 -0.245715,-2.00316 0.01272,-0.0806 -0.05005,-0.14657 -0.139508,-0.14657 -0.08946,0 -0.139491,0.50568 -0.111186,1.12372 l 0.05146,1.12372 -0.137397,-1.01401 c -0.128861,-0.95102 -0.414757,-1.63368 -0.427894,-1.02171 -0.0048,0.22479 -0.03864,0.22105 -0.179811,-0.0199 -0.135749,-0.23168 -0.423666,-0.27453 -1.313208,-0.19543 -1.109662,0.0987 -1.139658,0.11658 -1.151548,0.6876 -0.02826,1.35698 -0.06964,1.46572 -0.557796,1.46572 -0.259757,0 -0.516645,-0.10993 -0.570859,-0.24428 -0.07886,-0.19543 -0.101657,-0.19543 -0.114001,0 -0.02353,0.37248 -0.406289,0.29126 -0.406289,-0.0862 0,-0.2882 -0.03673,-0.28194 -0.286929,0.0489 -0.273346,0.36139 -0.287955,0.3516 -0.308572,-0.20693 l -0.02164,-0.5863 -0.196288,0.53744 c -0.270256,0.73996 -0.56496,0.67633 -0.452637,-0.0977 l 0.09217,-0.63515 -0.200355,0.63515 -0.200355,0.63515 H 51.648347 39.911173 l -0.221971,-0.58807 c -0.122085,-0.32344 -0.312318,-0.556 -0.422742,-0.51681 -0.110422,0.0392 -0.358254,-0.20184 -0.550735,-0.53565 l -0.349964,-0.60691 0.07626,0.66531 c 0.07071,0.61689 0.05556,0.63823 -0.208086,0.29315 -0.156389,-0.2047 -0.41006,-0.636 -0.563715,-0.95846 l -0.279373,-0.58629 0.06373,0.71925 c 0.03505,0.39559 0.01614,0.71496 -0.04201,0.70972 -0.616235,-0.0556 -0.844186,0.68586 -0.3598,1.17024 0.1824,0.1824 -1.055321,0.23452 -5.569748,0.23452 -3.192346,0 -5.804265,-0.0484 -5.804265,-0.10742 0,-0.0591 0.122769,-0.3449 0.27282,-0.63515 0.150051,-0.29025 0.303952,-0.78847 0.342002,-1.10717 0.05485,-0.45938 -0.03205,-0.6305 -0.419392,-0.82587 -0.413482,-0.20855 -0.498606,-0.20043 -0.553844,0.0528 -0.09703,0.44488 -0.530349,0.20859 -0.464097,-0.25307 0.06281,-0.43765 -0.725369,-0.78784 -0.951108,-0.42259 -0.0724,0.11716 -0.167899,0.0461 -0.223427,-0.16623 -0.06913,-0.26436 -0.459678,-0.46902 -1.360142,-0.71276 -1.130708,-0.30606 -2.716016,-1.09462 -2.207188,-1.09789 0.110443,-5.5e-4 0.39626,0.13562 0.635147,0.30294 0.238889,0.16733 0.434345,0.21356 0.434345,0.10274 0,-0.2819 -1.151334,-0.84779 -1.47341,-0.7242 -0.166703,0.064 -0.227236,0.002 -0.162619,-0.16634 0.05692,-0.14835 0.380046,-0.26959 0.722909,-0.27125 3.366989,-0.0163 3.614995,-0.0481 4.13512,-0.53018 0.281217,-0.26063 0.638687,-0.47386 0.794379,-0.47386 0.155691,0 0.283076,-0.17589 0.283076,-0.39086 0,-0.44161 -0.202514,-0.50103 -0.543946,-0.1596 -0.127193,0.12719 -0.292271,0.17024 -0.366841,0.0957 -0.208016,-0.20801 0.934311,-1.30408 1.359118,-1.30408 0.266218,0 0.339769,-0.0923 0.253211,-0.31791 -0.0671,-0.17486 -0.01927,-0.44169 0.106263,-0.59296 0.301665,-0.36348 -0.11001,-1.16411 -0.674471,-1.31172 -0.361673,-0.0946 -0.374635,-0.14291 -0.122359,-0.45618 0.843479,-1.04741 0.90944,-1.75307 0.141073,-1.5092 -0.349131,0.11081 -0.388544,0.0604 -0.302932,-0.38745 l 0.09842,-0.51483 -2.563212,0.13732 c -3.058079,0.16382 -3.24645,0.16257 -3.686931,-0.0247 -0.196366,-0.0835 -0.342002,-0.061 -0.342002,0.0527 0,0.10893 -0.156149,0.15721 -0.346998,0.1073 -0.646921,-0.16917 -3.054835,0.61715 -3.285897,1.07303 -0.25832,0.50966 -0.471131,0.34732 -0.471131,-0.3594 0,-0.28663 -0.06335,-0.5845 -0.140768,-0.66192 -0.248705,-0.24871 -0.03879,-1.57731 0.289103,-1.82981 0.378413,-0.29141 0.902652,-0.32644 0.731099,-0.0489 -0.222117,0.35939 0.203133,0.20059 0.475765,-0.17766 0.147897,-0.2052 0.38717,-0.32771 0.531717,-0.27224 0.144546,0.0555 0.262812,0.003 0.262812,-0.11549 0,-0.11898 0.09313,-0.21634 0.206964,-0.21634 0.11383,0 0.144213,0.10153 0.06752,0.22563 -0.0864,0.13979 -0.05361,0.17257 0.08618,0.0862 0.124095,-0.0767 0.225626,-0.26382 0.225626,-0.41583 0,-0.43308 0.832673,-2.03728 1.002873,-1.93209 0.08395,0.0518 0.105452,0.24542 0.04778,0.43008 -0.06355,0.2035 0.07495,0.12714 0.351647,-0.19388 0.31831,-0.36929 0.539863,-0.4781 0.731878,-0.35942 0.151458,0.0936 0.434925,0.13946 0.629927,0.10191 0.195002,-0.0376 0.409101,0.02 0.475776,0.12787 0.07368,0.11921 0.26692,0.0643 0.492684,-0.14002 0.204301,-0.18489 0.373414,-0.25657 0.375804,-0.1593 0.0024,0.0973 0.169983,-0.0387 0.372428,-0.30208 0.295901,-0.38502 0.423133,-0.43326 0.648784,-0.24598 0.154384,0.12812 0.338563,0.17509 0.409289,0.10437 0.07072,-0.0707 0.128591,-0.026 0.128591,0.0994 0,0.12539 0.08962,0.228 0.199152,0.228 0.111847,0 0.154171,-0.23561 0.09655,-0.53744 -0.05644,-0.29558 -0.04384,-0.40551 0.02798,-0.24428 0.1697,0.38094 0.705308,0.77274 0.8956,0.65514 0.0818,-0.0506 0.148728,0.0503 0.148728,0.22429 0,0.17392 0.07798,0.26802 0.173286,0.20912 0.09531,-0.0589 0.274428,0.0148 0.398045,0.16372 0.123617,0.14894 0.397413,0.22566 0.608434,0.17048 0.211021,-0.0552 0.384129,-0.0241 0.384686,0.069 5.87e-4,0.0932 0.35233,0.18934 0.781719,0.21375 0.429388,0.0244 0.780707,-0.0411 0.780707,-0.14551 0,-0.10766 0.298047,-0.14252 0.688247,-0.0805 0.507384,0.0806 0.674293,0.0418 0.635146,-0.14763 -0.03017,-0.14603 0.08823,-0.23368 0.274165,-0.20298 0.179996,0.0297 0.38306,-0.0362 0.451251,-0.14657 0.06819,-0.11034 0.382626,-0.20061 0.698742,-0.20061 0.47908,0 0.574755,-0.0794 0.574755,-0.47704 0,-0.26238 0.08794,-0.5314 0.195429,-0.59783 0.107487,-0.0664 0.194084,-0.22552 0.192438,-0.35353 -0.0018,-0.13986 -0.07861,-0.11575 -0.192438,0.0604 -0.156283,0.24183 -0.189967,0.22325 -0.192437,-0.10616 -0.0021,-0.28123 0.182037,-0.4546 0.62277,-0.58629 0.474902,-0.14191 0.664236,-0.33829 0.785356,-0.8146 0.123504,-0.4857 0.236108,-0.59896 0.497959,-0.50085 0.295937,0.11088 0.304731,0.0854 0.07015,-0.20296 -0.232203,-0.28545 -0.223186,-0.32973 0.06715,-0.32973 0.184454,0 0.380605,-0.17298 0.43589,-0.38439 0.05529,-0.21141 0.26691,-0.43719 0.470279,-0.50174 0.203367,-0.0645 0.369759,-0.28732 0.369759,-0.49505 0,-0.20773 0.09613,-0.3557 0.213616,-0.32883 0.328566,0.0752 0.729926,-0.66208 0.421531,-0.77427 -0.351098,-0.12774 -0.301259,-0.44717 0.06977,-0.44717 0.215633,0 0.273988,-0.1044 0.186207,-0.33316 -0.122269,-0.31862 0.415116,-1.64797 0.721175,-1.78399 0.08062,-0.0358 0.146573,-0.27249 0.146573,-0.5259 0,-0.25342 0.07923,-0.50972 0.176072,-0.56957 0.09684,-0.0599 0.140678,-0.52675 0.09742,-1.03754 -0.18553,-2.19078 -0.518677,-4.67504 -0.682689,-5.0908 -0.0974,-0.2469 -0.177093,-0.62613 -0.177093,-0.84272 0,-0.37577 -0.204818,-1.14318 -0.925727,-3.4685 -0.194285,-0.62668 -0.505114,-1.16526 -0.774293,-1.34163 -0.24734,-0.16207 -0.449707,-0.41646 -0.449707,-0.56533 0,-0.14887 -0.127919,-0.27067 -0.284263,-0.27067 -0.363835,0 -1.320229,-0.94805 -1.182008,-1.17169 0.05756,-0.0932 0.02717,-0.21726 -0.06752,-0.27579 -0.09469,-0.0585 -0.160186,-0.30644 -0.145544,-0.55093 0.01464,-0.24449 -0.107189,-0.55167 -0.270739,-0.68261 -0.259323,-0.20761 -0.248835,-0.23886 0.08199,-0.24428 0.354463,-0.006 0.357107,-0.0225 0.0403,-0.25414 -0.224765,-0.16435 -0.348697,-0.54312 -0.367677,-1.12372 -0.01661,-0.50794 -0.204494,-1.1631 -0.447325,-1.5598 -0.230285,-0.37621 -0.522386,-0.99181 -0.649115,-1.36801 -0.621073,-1.8437 -1.109144,-2.72938 -1.505901,-2.73268 -0.220347,-0.002 -0.484177,-0.084 -0.58629,-0.1826 -0.102112,-0.0986 -0.449488,-0.22267 -0.771947,-0.27571 -0.322459,-0.053 -0.964712,-0.16024 -1.42723,-0.23823 -0.753944,-0.12712 -0.900307,-0.0849 -1.414827,0.40804 -0.596848,0.57181 -1.06709,0.55094 -0.494209,-0.0219 0.463126,-0.46313 0.23939,-0.56731 -0.366188,-0.17052 -0.495059,0.32437 -0.5004,0.34807 -0.16353,0.72559 0.337327,0.37803 0.335103,0.38618 -0.07088,0.25994 -0.25015,-0.0778 -0.525913,-0.0248 -0.684004,0.13154 -0.42194,0.41712 -0.948793,0.56486 -0.820306,0.23003 0.05977,-0.15575 0.231175,-0.28319 0.380906,-0.28319 0.149728,0 0.272236,-0.0931 0.272236,-0.20696 0,-0.11383 0.08794,-0.15262 0.195429,-0.0862 0.107487,0.0664 0.19543,0.0277 0.19543,-0.0862 0,-0.27944 -0.218418,-0.2511 -0.663937,0.0861 -0.203937,0.15436 -0.443964,0.23544 -0.533394,0.18017 -0.21694,-0.13407 -0.952396,0.26924 -0.952396,0.52228 0,0.11004 0.08694,0.14635 0.193192,0.0807 0.112909,-0.0698 0.142214,0.0134 0.07052,0.20028 -0.09071,0.23638 -0.161349,0.2571 -0.271114,0.0795 -0.10503,-0.16995 -0.176174,-0.13188 -0.243277,0.13018 -0.08891,0.3472 -0.09618,0.34592 -0.116304,-0.0205 -0.01181,-0.21497 0.11004,-0.65468 0.27077,-0.97714 l 0.292237,-0.58629 -0.391156,0.46137 c -0.215135,0.25375 -0.391155,0.57277 -0.391155,0.70892 0,0.13616 -0.131915,0.35705 -0.293144,0.49086 -0.36624,0.30395 -0.368216,0.16711 -0.01,-0.69028 0.358821,-0.85877 0.255204,-0.86483 -0.269555,-0.0158 -0.236811,0.38317 -0.359223,0.81528 -0.290649,1.026 0.09845,0.3025 0.08232,0.31449 -0.09539,0.0709 -0.151922,-0.20824 -0.256319,-0.22897 -0.360438,-0.0716 -0.137715,0.20817 -0.663468,0.319 -2.785164,0.5871 -0.728244,0.092 -0.942798,0.0415 -1.246034,-0.2936 -0.284266,-0.31411 -0.448356,-0.36086 -0.732577,-0.20875 -0.248467,0.13297 -0.491968,0.12874 -0.757121,-0.0132 -0.281009,-0.15039 -0.39086,-0.14862 -0.39086,0.006 0,0.12465 -0.16053,0.16452 -0.380863,0.0946 -0.24588,-0.078 -0.522931,0.0212 -0.781719,0.27998 -0.43134,0.43134 -0.798451,0.50634 -1.094632,0.22365 C 10.421038,97.41977 9.9958993,97.29596 9.5783973,97.24207 9.1608952,97.18817 8.7541568,97.03867 8.6745346,96.90983 8.5865156,96.76742 8.4837149,96.75011 8.4122871,96.86563 8.3476741,96.97018 8.0832453,97.01528 7.8246684,96.96585 7.466713,96.89745 7.3736487,96.77543 7.4346573,96.45462 l 0.080129,-0.42135 -0.1872471,0.41972 c -0.2683811,0.60158 -0.5850117,0.74171 -0.4873898,0.2157 0.044911,-0.24199 0.029383,-0.33006 -0.034513,-0.1957 -0.1597845,0.33601 -0.4744556,0.30767 -0.4744556,-0.0427 0,-0.15786 -0.1124529,-0.24386 -0.249895,-0.19112 -0.1374421,0.0527 -0.4153807,-0.0251 -0.6176417,-0.17301 -0.320571,-0.2344 -0.426403,-0.2179 -0.824969,0.12865 -0.251472,0.21865 -0.457222,0.5136 -0.457222,0.65545 0,0.14184 -0.09735,0.2579 -0.216338,0.2579 -0.118987,0 -0.166695,0.12937 -0.106019,0.28749 0.06068,0.15812 -0.01786,0.41566 -0.174521,0.57233 -0.156663,0.15666 -0.284841,0.42304 -0.284841,0.59194 0,0.16891 -0.09313,0.30711 -0.206963,0.30711 -0.11383,0 -0.155952,0.0825 -0.09361,0.18341 0.06235,0.10089 -0.04239,0.2741 -0.232754,0.38492 -0.190362,0.11083 -0.276779,0.20417 -0.192039,0.20744 0.08474,0.003 -0.253118,0.40169 -0.750797,0.88538 -0.497679,0.48369 -0.814047,0.87943 -0.703039,0.87943 0.111007,0 0.256184,-0.0879 0.322614,-0.19543 0.06643,-0.10748 0.214303,-0.19543 0.328607,-0.19543 0.122599,0 0.09783,0.13325 -0.06039,0.32493 -0.230059,0.2787 -0.226513,0.31026 0.02493,0.22184 0.394318,-0.13867 0.977149,0.18042 0.977149,0.53497 0,0.17729 -0.204604,0.29369 -0.537432,0.30575 -0.488378,0.0177 -0.497832,0.0311 -0.103574,0.14658 0.318166,0.0932 0.386943,0.20245 0.257923,0.4097 -0.104592,0.16802 -0.103638,0.4177 0.0023,0.61574 0.114595,0.21413 0.08339,0.64845 -0.08735,1.21577 -0.30001,0.99686 -0.206455,1.89219 0.197718,1.89219 0.148699,0 0.270362,0.13191 0.270362,0.29314 0,0.16123 0.08794,0.29315 0.19543,0.29315 0.107487,0 0.19543,0.25306 0.19543,0.56236 0,0.30929 0.139496,0.67813 0.309991,0.81962 0.210713,0.17488 0.274132,0.43657 0.19802,0.81713 -0.116013,0.58007 0.01722,1.68471 0.696765,5.77677 0.219765,1.32337 0.346395,2.45931 0.281402,2.5243 -0.06499,0.065 -0.11817,0.007 -0.11817,-0.12852 0,-0.13568 -0.187076,-0.50942 -0.415725,-0.83053 -0.228649,-0.3211 -0.572401,-1.0822 -0.763893,-1.69132 -0.191492,-0.60912 -0.356189,-0.92809 -0.365994,-0.70883 -0.02773,0.62019 0.531812,2.62535 1.033986,3.70537 0.24989,0.53743 0.563948,1.43885 0.697908,2.00315 0.133959,0.56431 0.308658,1.02601 0.388219,1.02601 0.07956,0 0.259239,0.34719 0.399283,0.77152 0.140044,0.42434 0.3739782,0.81733 0.5198546,0.87331 0.1458764,0.056 0.2652295,0.23462 0.2652295,0.39697 0,0.62298 1.2413227,4.56999 1.8605677,5.91603 0.8204308,1.78334 3.1826841,5.33413 4.3674341,6.56484 0.497851,0.51716 1.231396,1.12497 1.630099,1.35067 0.398703,0.2257 0.680424,0.48236 0.626046,0.57035 -0.05438,0.088 0.683058,1.10713 1.638746,2.26478 0.955688,1.15764 2.204615,2.76438 2.775395,3.57053 0.570782,0.80614 1.353945,1.74787 1.740367,2.09273 l 0.702581,0.62701 -12.1655017,0.008 -12.1655032,0.008 z m 68.9510329,31.05046 c -0.062,-0.65009 -0.01562,-0.76214 0.323655,-0.78188 1.751989,-0.10191 4.098016,-0.41441 4.442783,-0.5918 0.183476,-0.0944 0.374383,-0.45638 0.424239,-0.80441 0.04986,-0.34802 0.236721,-1.60014 0.415251,-2.7825 0.178534,-1.18234 0.356871,-2.38892 0.396309,-2.68126 0.114212,-0.84669 0.358887,-1.16467 2.141144,-2.78273 2.804995,-2.54657 3.831381,-4.11429 5.173419,-7.90197 0.702675,-1.98318 0.747372,-2.05279 1.481361,-2.3069 0.966684,-0.33467 1.584353,-0.91836 1.861955,-1.7595 0.279732,-0.8476 0.09178,-1.70403 -0.33779,-1.53919 -0.237768,0.0912 -0.280706,0.0281 -0.187247,-0.27538 0.29591,-0.96083 0.347673,-1.26909 0.171745,-1.02275 -0.112921,0.1581 -0.180292,-0.49032 -0.182748,-1.75887 -0.0021,-1.10512 -0.02641,-2.84477 -0.05392,-3.86589 -0.03083,-1.14408 0.07814,-2.53048 0.283956,-3.61259 0.308161,-1.62021 0.310907,-2.31484 0.01663,-4.2046 -0.207083,-1.32982 -0.337681,-1.86302 -0.598337,-2.44287 -0.144951,-0.32246 -0.372304,-0.95714 -0.505229,-1.41039 -0.132928,-0.45326 -0.299596,-0.78831 -0.370375,-0.74457 -0.07078,0.0438 -0.294026,-0.14063 -0.496102,-0.40971 -0.202076,-0.26909 -0.535857,-0.68155 -0.741736,-0.91659 -0.20588,-0.23504 -0.58219,-0.67245 -0.836246,-0.97202 -0.809836,-0.95492 -2.606127,-1.41418 -3.35755,-0.85843 -0.134358,0.0994 -0.244288,0.11517 -0.244288,0.0351 0,-0.0801 -0.122657,-0.0438 -0.272573,0.0806 -0.149916,0.12442 -0.347789,0.20833 -0.439717,0.18647 -0.365332,-0.0869 -1.622695,0.27525 -1.521907,0.43832 0.05915,0.0957 -0.02957,0.174 -0.197141,0.174 -0.167572,0 -0.304678,0.0727 -0.304678,0.16159 0,0.0889 -0.26383,0.12286 -0.586289,0.0755 -0.367008,-0.0539 -0.58629,-3.5e-4 -0.58629,0.1431 0,0.12603 -0.08869,0.17433 -0.197083,0.10734 -0.108395,-0.067 -0.262296,0.0377 -0.342002,0.23275 -0.183839,0.44978 -0.586244,0.53757 -0.984724,0.21484 -0.254025,-0.20574 -0.282093,-0.20461 -0.155247,0.006 0.09972,0.16574 0.06089,0.24342 -0.109058,0.21821 -0.562019,-0.0834 -1.527803,0.27129 -1.631907,0.59929 -0.0601,0.18938 -0.367761,0.39601 -0.68368,0.4592 -0.315919,0.0632 -0.753033,0.29351 -0.971366,0.51184 -0.218332,0.21834 -0.48491,0.39697 -0.592396,0.39697 -0.107487,0 -0.19543,0.0801 -0.19543,0.17795 0,0.27717 -1.968556,1.19006 -2.566235,1.19006 -1.145537,0 -1.790991,0.47674 -3.968843,2.93145 -1.223116,1.3786 -1.321416,2.31498 -0.287962,2.74306 0.313108,0.12969 0.569287,0.31308 0.569287,0.40752 0,0.0944 0.09162,0.17172 0.203601,0.17172 0.111981,0 0.392394,0.17589 0.62314,0.39086 0.230747,0.21497 0.559275,0.39086 0.730065,0.39086 0.170788,0 0.527965,0.15231 0.793724,0.33845 0.265761,0.18615 0.483202,0.30398 0.483202,0.26187 0,-0.0421 0.351774,0.0369 0.781719,0.17559 1.345325,0.434 1.609775,0.83666 0.79368,1.2085 -0.40311,0.18367 -0.435402,0.25837 -0.20939,0.48438 0.146975,0.14698 0.323761,0.26723 0.392859,0.26723 0.186256,0 0.591459,0.43906 0.848568,0.91947 0.374474,0.69972 0.260047,1.17547 -0.408851,1.69985 -0.561161,0.43992 -0.60669,0.5437 -0.390859,0.89095 0.319084,0.51336 0.314958,0.52968 -0.165574,0.65535 -0.510575,0.13352 -1.4044,-0.1647 -0.958148,-0.31968 0.16123,-0.056 0.42506,-0.1522 0.58629,-0.2138 0.161229,-0.0616 -0.916078,-0.0757 -2.394015,-0.0314 -2.41054,0.0724 -2.687468,0.0471 -2.690152,-0.24549 -0.0025,-0.28006 -0.02902,-0.28499 -0.187165,-0.0348 -0.160324,0.25358 -0.266046,0.24294 -0.81647,-0.0822 -0.412935,-0.24393 -0.657482,-0.29795 -0.704894,-0.15571 -0.03993,0.11978 -0.213259,0.16381 -0.385176,0.0978 -0.196886,-0.0755 -0.263915,-0.0412 -0.181099,0.0928 0.07915,0.12806 -0.10519,0.26471 -0.463137,0.34333 -0.334113,0.0734 -0.739571,0.35861 -0.925483,0.65106 -0.181977,0.28624 -0.393353,0.5662 -0.469725,0.62214 -0.541513,0.39656 -0.695834,2.38146 -0.363785,4.67902 0.10039,0.69464 0.147022,1.29849 0.103622,1.34188 -0.0434,0.0434 -0.208074,-0.21714 -0.365946,-0.57897 l -0.287039,-0.65788 -0.0326,0.87943 c -0.09152,2.4686 0.16739,4.79563 0.712995,6.40829 0.509362,1.50555 1.732968,3.02537 4.145014,5.14846 1.251744,1.10179 2.429798,2.15851 2.6179,2.34827 0.341273,0.34428 0.473198,0.96836 0.195429,0.9245 -0.08061,-0.0127 -0.336211,-0.0127 -0.567993,0 -0.336645,0.0185 -0.398628,0.1116 -0.308113,0.46286 0.102068,0.39609 0.07998,0.41237 -0.222618,0.16412 -0.188873,-0.15495 -0.28451,-0.40959 -0.21847,-0.58169 0.07105,-0.18515 -0.08059,-0.12004 -0.383782,0.1648 -0.355566,0.33404 -0.464396,0.58698 -0.374458,0.87034 0.193598,0.60998 1.310129,2.05337 1.595031,2.06197 0.138852,0.004 0.440213,0.18254 0.669691,0.39633 0.235815,0.2197 0.838026,0.44454 1.384999,0.5171 0.92234,0.12235 0.945946,0.14013 0.502887,0.37887 -0.447933,0.24137 -0.450631,0.25581 -0.07402,0.39646 0.214972,0.0803 0.46709,0.27308 0.560264,0.42844 0.105029,0.17513 0.216428,0.20672 0.293144,0.0831 0.06806,-0.10964 0.298929,-0.23012 0.513048,-0.26774 0.310894,-0.0546 0.413961,0.0694 0.511706,0.61562 0.110345,0.61665 0.27142,0.47113 0.183934,-0.16618 -0.02126,-0.15488 0.05767,-0.20588 0.19106,-0.12343 0.125007,0.0772 0.190091,0.39388 0.144632,0.70361 -0.04546,0.30973 -0.01,0.56315 0.07893,0.56315 0.08887,0 0.161583,-0.26383 0.161583,-0.58629 0,-0.32246 0.09512,-0.58629 0.211373,-0.58629 0.128728,0 0.175433,0.26669 0.119451,0.68211 -0.05639,0.4184 -0.01769,0.63621 0.100119,0.56341 0.105621,-0.0653 0.159472,-0.46017 0.119671,-0.87753 z m -2.697349,-12.26125 c -0.0018,-0.15497 -0.124836,-0.21844 -0.296137,-0.15271 -0.161229,0.0619 -0.293144,0.0273 -0.293144,-0.0768 0,-0.10412 -0.170696,-0.1893 -0.379326,-0.1893 -0.208629,0 -0.433678,-0.0879 -0.500108,-0.19543 -0.07554,-0.12222 0.377701,-0.20386 1.209902,-0.21794 1.71704,-0.029 1.897607,-0.0145 3.228079,0.26014 0.880653,0.18177 1.071162,0.28392 0.904363,0.4849 -0.258399,0.31135 -1.336034,0.33979 -1.336034,0.0352 0,-0.15567 -0.08167,-0.15158 -0.281288,0.0141 -0.320722,0.26617 -1.501526,0.20591 -1.721867,-0.0879 -0.09192,-0.12257 -0.218318,-0.0861 -0.33901,0.0977 -0.148695,0.2265 -0.193118,0.23286 -0.19543,0.028 z m 4.602133,-0.0878 c 0.112635,-0.29353 1.561834,-0.43409 1.726614,-0.16747 0.06032,0.0976 -0.21836,0.23169 -0.6193,0.29797 -1.05378,0.1742 -1.216864,0.15498 -1.107314,-0.1305 z m -7.096854,-0.4689 c -0.480428,-0.0925 -0.609434,-0.44837 -0.162557,-0.44837 0.423784,0 0.895418,0.21689 0.895418,0.41177 0,0.096 -0.06596,0.16254 -0.146572,0.14791 -0.08062,-0.0146 -0.344445,-0.0647 -0.586289,-0.11131 z m 3.322306,-4.95738 c -0.241845,-0.0928 -0.439717,-0.25949 -0.439717,-0.37044 0,-0.26873 0.918279,-0.25965 1.085387,0.0108 0.208146,0.33679 -0.164431,0.54436 -0.64567,0.35971 z m 6.204895,0.0141 c 0,-0.10749 0.131915,-0.19543 0.293144,-0.19543 0.16123,0 0.293145,0.0879 0.293145,0.19543 0,0.10749 -0.131915,0.19543 -0.293145,0.19543 -0.161229,0 -0.293144,-0.0879 -0.293144,-0.19543 z m 2.589444,-8.40134 c -0.34933,-0.21299 -0.635147,-0.49931 -0.635147,-0.63626 0,-0.13695 -0.179298,-0.36098 -0.398442,-0.49784 -0.219143,-0.13686 -0.346991,-0.33208 -0.284107,-0.43383 0.06288,-0.10175 0.02186,-0.35779 -0.09116,-0.56897 -0.236841,-0.44254 0.332461,-2.14867 0.797015,-2.38856 2.270888,-1.17266 3.993012,-1.41292 5.586581,-0.77942 1.209372,0.48078 2.022954,1.13787 1.87766,1.5165 -0.07587,0.19771 -0.0045,0.23626 0.259027,0.13987 0.349453,-0.12784 0.349119,-0.1164 -0.0085,0.29092 -0.27985,0.31872 -0.304112,0.42475 -0.09772,0.427 0.223394,0.002 0.219933,0.0383 -0.01856,0.19244 -0.508179,0.3284 -1.325123,0.21274 -2.070605,-0.29315 -0.395975,-0.26872 -0.872577,-0.48858 -1.059114,-0.48858 -0.186538,0 -0.591997,-0.0504 -0.90102,-0.11187 -0.520636,-0.10367 -0.565064,-0.0653 -0.605527,0.52269 -0.02402,0.34901 -0.155931,0.70581 -0.293145,0.79288 -0.179866,0.11415 -0.149504,0.15916 0.10881,0.16132 0.52705,0.004 0.2975,0.44437 -0.423131,0.81099 -0.48597,0.24724 -0.557014,0.34661 -0.31438,0.43972 0.172412,0.0662 0.526142,0.12029 0.786067,0.12029 0.325678,0 0.467795,0.10632 0.457161,0.342 -0.0092,0.20431 -0.05512,0.24365 -0.114,0.0977 -0.05421,-0.13436 -0.333089,-0.23409 -0.619718,-0.22162 -0.373622,0.0162 -0.417379,0.0493 -0.154573,0.11678 0.321713,0.0826 0.297798,0.13944 -0.195429,0.46461 -0.701396,0.46241 -0.805652,0.46139 -1.58801,-0.0156 z m 0.9253,-2.99398 c 0.0017,-0.087 -0.08495,-0.10375 -0.192438,-0.0373 -0.107486,0.0664 -0.194084,0.26949 -0.192438,0.45125 0.0026,0.2848 0.02918,0.28996 0.192438,0.0373 0.104195,-0.16123 0.190792,-0.36429 0.192438,-0.45125 z m 4.302447,-1.48026 c 0,-0.095 -0.219859,-0.21468 -0.488575,-0.26604 -0.473282,-0.0905 -0.625844,0.0408 -0.358287,0.3084 0.191525,0.19152 0.846862,0.15874 0.846862,-0.0424 z m -2.211658,-0.45029 c -0.06238,-0.1559 -0.108694,-0.10959 -0.11807,0.11807 -0.0085,0.20602 0.0377,0.32145 0.102643,0.2565 0.06494,-0.0649 0.07188,-0.2335 0.01542,-0.37457 z m 1.039079,0.1995 c 0,-0.0896 -0.131915,-0.16285 -0.293145,-0.16285 -0.161229,0 -0.293144,0.0733 -0.293144,0.16285 0,0.0896 0.131915,0.16286 0.293144,0.16286 0.16123,0 0.293145,-0.0733 0.293145,-0.16286 z m -15.243522,3.55031 c 0,-0.10749 0.08275,-0.19543 0.183896,-0.19543 0.101142,0 0.238248,0.0879 0.304678,0.19543 0.06643,0.10749 -0.01632,0.19543 -0.183895,0.19543 -0.167573,0 -0.304679,-0.0879 -0.304679,-0.19543 z m 11.448362,-4.66488 c -0.05779,-0.0935 0.398727,-0.31843 1.014472,-0.49986 0.615745,-0.18143 1.25145,-0.41492 1.41268,-0.51888 1.242476,-0.8011 2.981081,-1.2162 1.818041,-0.43406 -0.23617,0.15881 -0.630714,0.46336 -0.876764,0.67676 -0.246048,0.21339 -0.692237,0.43697 -0.99153,0.49682 -0.299293,0.0599 -0.591502,0.18543 -0.649353,0.27903 -0.136826,0.22139 -1.590738,0.22155 -1.727546,1.9e-4 z m 6.433462,-2.76145 c 0.06643,-0.10749 0.203536,-0.19543 0.304679,-0.19543 0.101142,0 0.183896,0.0879 0.183896,0.19543 0,0.10749 -0.137106,0.19543 -0.30468,0.19543 -0.167573,0 -0.250326,-0.0879 -0.183895,-0.19543 z m -40.151768,34.79134 c 0.307763,0.16471 0.420376,0.0966 0.68438,-0.41393 0.173802,-0.33609 0.226872,-0.55599 0.117936,-0.48867 -0.108938,0.0673 -0.253309,0.033 -0.320821,-0.0762 -0.188157,-0.30444 -0.685975,-0.23585 -0.685975,0.0945 0,0.35496 -0.319555,0.38913 -0.45686,0.0489 -0.05421,-0.13436 -0.105514,-0.0171 -0.114,0.26057 -0.01618,0.52962 0.220287,0.93772 0.338267,0.58378 0.04697,-0.14092 0.185182,-0.14374 0.437073,-0.009 z m 24.730092,-0.54128 c -0.210183,-0.21019 -0.321765,0.0842 -0.174222,0.45961 0.138403,0.35218 0.148857,0.35279 0.217304,0.0127 0.03955,-0.19652 0.02016,-0.40905 -0.04308,-0.47229 z m 6.463621,0.0967 c -0.05421,-0.13436 -0.09857,-0.0244 -0.09857,0.24429 0,0.26872 0.04436,0.37865 0.09857,0.24429 0.05421,-0.13436 0.05421,-0.35422 0,-0.48858 z m 13.589425,-0.51021 c -0.105598,-0.30292 -0.151828,-0.76275 -0.102734,-1.02185 0.04908,-0.2591 -0.0065,-0.69095 -0.123503,-0.95967 -0.181881,-0.41766 -0.197498,-0.36093 -0.107588,0.39087 0.07869,0.65801 0.0523,0.80562 -0.104889,0.58628 -0.157733,-0.22012 -0.176845,-0.12276 -0.07672,0.39086 0.07334,0.3762 0.210588,0.71332 0.305002,0.74915 0.09441,0.0358 0.178606,0.25569 0.187093,0.48857 0.0085,0.23289 0.06041,0.31164 0.115382,0.175 0.05495,-0.13665 0.01357,-0.49629 -0.09204,-0.79921 z m 0.876448,-0.0639 c -0.06238,-0.1559 -0.108695,-0.1096 -0.118068,0.11807 -0.0085,0.20601 0.03772,0.32144 0.10264,0.2565 0.06494,-0.0649 0.07188,-0.2335 0.0154,-0.37457 z m 23.944659,-0.79394 c 3.9807,-2.55105 6.46631,-4.80083 7.39509,-6.69347 0.45959,-0.93652 0.63463,-1.68378 0.86948,-3.71196 0.16172,-1.39667 0.29405,-3.01229 0.29405,-3.59028 0,-0.57799 0.25988,-2.16151 0.57751,-3.51893 0.31763,-1.35743 0.6742,-3.08112 0.79238,-3.83043 0.11817,-0.74931 0.23785,-1.38537 0.26595,-1.41347 0.0281,-0.0281 0.33004,0.0542 0.67099,0.1829 0.5893,0.22244 0.65942,0.19573 1.42003,-0.54082 1.11256,-1.07739 1.6798,-2.11673 2.1386,-3.91854 0.50422,-1.9801 0.71062,-2.64108 1.28671,-4.12052 0.9054,-2.3251 0.5263,-4.55542 -0.87283,-5.13496 -0.53253,-0.22058 -0.71375,-0.20119 -1.47833,0.15821 -0.7189,0.33792 -1.02925,0.38011 -1.77343,0.24108 -0.75854,-0.1417 -0.88447,-0.12273 -0.7916,0.1193 0.0607,0.15829 0.0634,0.36397 0.006,0.45706 -0.13132,0.21247 -0.67838,0.0161 -0.67838,-0.24347 0,-0.1059 -0.17589,-0.41616 -0.39086,-0.68945 -0.21497,-0.27329 -0.39086,-0.66093 -0.39086,-0.8614 -1e-5,-0.20048 -0.0982,-0.36451 -0.21823,-0.36451 -0.1255,0 -0.17261,-0.17444 -0.11087,-0.41053 0.11476,-0.43883 -0.21172,-1.34833 -0.484,-1.34833 -0.0902,0 -0.16406,-0.18167 -0.16406,-0.40371 0,-0.22204 -0.0861,-0.56458 -0.19132,-0.7612 -0.13899,-0.2597 -0.11226,-0.42311 0.0977,-0.59737 0.39976,-0.33177 0.36134,-0.70551 -0.1062,-1.03298 -0.2484,-0.17399 -0.34953,-0.39592 -0.27223,-0.59737 0.0683,-0.17814 0.0269,-0.32054 -0.0933,-0.32054 -0.11899,0 -0.21634,-0.19122 -0.21634,-0.42493 0,-0.4243 5.5e-4,-0.42423 0.53152,0.0489 0.31464,0.28046 0.41494,0.32273 0.24582,0.10359 -0.26597,-0.34463 -0.25341,-0.35994 0.18205,-0.22173 0.38942,0.12359 0.44644,0.0929 0.34047,-0.18323 -0.07,-0.18242 -0.12728,-0.4478 -0.12728,-0.58972 0,-0.14193 -0.28582,-0.36767 -0.63515,-0.50166 -0.81013,-0.31072 -0.86686,-0.32713 -1.23297,-0.35648 -0.16757,-0.0134 -0.25851,-0.0991 -0.2021,-0.19041 0.15878,-0.2569 -0.63962,-0.5811 -2.01666,-0.8189 -0.68924,-0.11902 -2.05236,-0.49452 -3.02916,-0.83445 -1.52846,-0.5319 -2.04842,-0.61869 -3.73031,-0.62264 -1.73028,-0.004 -2.06698,-0.0639 -2.93727,-0.52166 -0.54063,-0.28439 -1.24418,-0.56267 -1.56344,-0.61841 -0.88075,-0.15377 -1.89628,-0.34169 -2.40457,-0.44497 -0.25857,-0.0525 -0.406564,-0.0125 -0.34173,0.0924 0.15229,0.24641 -0.727468,0.0204 -0.892236,-0.2292 -0.186989,-0.28327 -1.522687,-0.70374 -1.638795,-0.51587 -0.0549,0.0888 -0.358249,0.0714 -0.67412,-0.0387 -0.449439,-0.15668 -0.670414,-0.13289 -1.01631,0.10939 -0.243106,0.17027 -0.604607,0.30959 -0.80334,0.30959 -0.198732,0 -0.493253,0.13191 -0.654481,0.29314 -0.24756,0.24756 -0.554556,0.32396 -1.151602,0.2866 -0.152864,-0.01 -1.45878,1.40279 -1.45878,1.57768 0,0.0816 -0.291158,0.58111 -0.647014,1.10992 -0.67781,1.00721 -0.962697,2.34953 -1.208096,5.69225 l -0.105388,1.43554 0.491674,-0.58432 c 0.270423,-0.32138 0.494455,-0.65957 0.497851,-0.75154 0.0033,-0.092 0.219036,-0.40907 0.479199,-0.70465 0.34609,-0.39322 0.656,-0.53743 1.15487,-0.53743 0.375013,0 0.72903,0.0764 0.78671,0.16967 0.05767,0.0933 0.539371,0.22731 1.070444,0.29776 1.20583,0.15995 1.824608,0.62871 1.654854,1.25363 -0.07482,0.27545 -0.22647,0.41085 -0.389909,0.34813 -0.147103,-0.0564 -0.268805,0.005 -0.270451,0.13552 -0.0022,0.16176 -0.04903,0.17083 -0.14657,0.0283 -0.198051,-0.28953 -1.76818,-0.66974 -2.529956,-0.61263 -0.65965,0.0494 -2.010799,1.1573 -2.010799,1.64872 0,0.14352 -0.131408,0.31137 -0.292022,0.373 -0.160608,0.0616 -0.247122,0.18471 -0.19224,0.27351 0.0549,0.0888 0.01041,0.21669 -0.09884,0.2842 -0.109858,0.0679 -0.214803,-0.0789 -0.23484,-0.3285 -0.01994,-0.24819 -0.08776,0.5601 -0.150742,1.79619 -0.06299,1.23609 -0.0508,2.38787 0.02709,2.55951 0.07788,0.17163 0.06375,0.39149 -0.03141,0.48857 -0.09516,0.0971 -0.200971,0.44034 -0.23514,0.7628 -0.03418,0.32246 -0.14933,0.64859 -0.25592,0.72473 -0.123735,0.0884 -0.106075,0.22615 0.04886,0.38109 0.133463,0.13346 0.242657,0.42811 0.242657,0.65478 0,0.22668 0.122129,0.57917 0.271403,0.78331 0.149274,0.20414 0.222271,0.49921 0.16222,0.6557 -0.06524,0.17002 -0.02554,0.23284 0.09861,0.15611 0.117309,-0.0725 0.260257,0.0806 0.328268,0.3516 0.06627,0.26401 0.421852,0.99423 0.790195,1.62271 0.500975,0.85478 0.890136,1.25606 1.544574,1.59265 0.846328,0.43528 1.299618,0.42387 1.299618,-0.0327 0,-0.12108 0.181271,-0.41312 0.402827,-0.64895 0.402646,-0.42859 0.403194,-0.42862 1.172581,-0.0569 0.423364,0.20454 0.769747,0.46119 0.769747,0.57032 0,0.10913 0.343741,0.55615 0.76387,0.99338 0.45977,0.47849 0.815306,1.06912 0.893067,1.48363 0.146864,0.78286 -0.138056,1.25766 -0.523445,0.87227 -0.182401,-0.1824 -0.160686,-0.23452 0.09772,-0.23452 0.182728,0 0.332229,-0.0502 0.332229,-0.11167 0,-0.2129 -0.559625,-0.67003 -0.816619,-0.66705 -0.191503,0.002 -0.182484,0.0536 0.0349,0.199 0.257326,0.17207 0.253576,0.2194 -0.03069,0.38741 -0.199015,0.11763 -0.284604,0.34137 -0.222066,0.58052 0.05597,0.21401 0.173372,0.34486 0.2609,0.29076 0.204322,-0.12628 0.446958,0.62241 0.286078,0.88273 -0.06703,0.10844 0.01834,0.19717 0.189692,0.19717 0.247466,0 0.269935,0.0778 0.109243,0.37801 -0.270184,0.50486 -0.255891,0.59914 0.09084,0.59914 0.161229,0 0.304137,0.17589 0.317577,0.39086 0.01346,0.21497 0.0354,0.49985 0.04886,0.63305 0.01346,0.13321 0.59606,0.37424 1.294721,0.53563 1.205332,0.27843 1.232202,0.29666 0.525318,0.35661 -0.466109,0.0396 -0.716516,0.14994 -0.668952,0.29496 0.109565,0.33403 1.337926,0.41371 1.537016,0.0997 0.12376,-0.19521 0.16481,-0.19877 0.16706,-0.0145 0.002,0.15879 0.31077,0.24428 0.88243,0.24428 0.48369,0 0.87944,-0.0879 0.87944,-0.19542 0,-0.10749 0.1583,-0.19543 0.35177,-0.19543 0.19348,0 0.43842,-0.0866 0.54432,-0.19255 0.26307,-0.26307 3.40413,-0.0134 3.40094,0.27037 -0.003,0.30743 -1.10394,1.00517 -3.95006,2.50446 -0.62156,0.32743 -0.94273,0.36331 -2.19859,0.24563 -0.80888,-0.0758 -1.470692,-0.21543 -1.470692,-0.31028 0,-0.0949 -0.175887,-0.17247 -0.390856,-0.17247 -0.53858,0 -0.490533,0.3526 0.195431,1.43425 0.322453,0.50846 0.586283,0.9987 0.586283,1.08941 0,0.0907 -0.26383,0.27422 -0.586283,0.40779 -0.322463,0.13356 -0.586293,0.35675 -0.586293,0.49597 0,0.13923 -0.214078,0.41438 -0.475726,0.61144 -0.352482,0.26548 -0.490018,0.57638 -0.530879,1.20006 -0.03036,0.46297 0.02986,0.90268 0.133724,0.97715 0.267066,0.19144 1.068312,1.35705 1.068312,1.55412 0,0.0903 0.10993,0.27418 0.244286,0.40854 0.241388,0.24139 0.269724,0.32351 0.317576,0.92029 0.01346,0.16757 0.106293,0.25408 0.206343,0.19224 0.10007,-0.0618 0.24167,-0.0158 0.31468,0.10235 0.212574,0.34394 1.824194,0.96416 2.505334,0.96416 0.38728,0 0.75442,0.15189 0.96685,0.39999 0.33046,0.38595 0.32222,0.42025 -0.23468,0.97715 -0.31743,0.31744 -0.65269,0.57716 -0.745,0.57716 -0.26281,0 -0.27611,0.9606 -0.0198,1.43154 0.12722,0.23378 0.24433,0.58342 0.26024,0.777 0.0753,0.91632 1.06337,1.25915 3.71551,1.2892 1.75791,0.0199 1.77217,0.0161 3.06218,-0.81058 z m -7.17348,-23.79357 c 0.0664,-0.10749 0.28629,-0.19543 0.48858,-0.19543 0.20228,0 0.42214,0.0879 0.48857,0.19543 0.0707,0.11432 -0.1321,0.19543 -0.48857,0.19543 -0.35648,0 -0.55924,-0.0811 -0.48858,-0.19543 z m 19.15212,-4.04668 c 0.46041,-0.36531 0.56959,-1.63487 0.21382,-2.48634 -0.16991,-0.40668 -0.2529,-0.83008 -0.1844,-0.94092 0.18751,-0.30339 0.8804,1.23229 0.85916,1.90419 -0.0424,1.33979 -0.12611,1.56206 -0.61075,1.62079 -0.26029,0.0315 -0.38532,-0.0124 -0.27783,-0.0977 z m -26.139433,-2.8094 c -0.275769,-0.16061 -0.317788,-0.35537 -0.215153,-0.99721 0.101732,-0.63619 0.07221,-0.77772 -0.145878,-0.69929 -0.150382,0.0541 -0.568582,-0.0216 -0.92933,-0.16814 -0.360748,-0.14655 -0.724172,-0.22427 -0.807606,-0.1727 -0.08343,0.0516 -0.379406,-0.0854 -0.657711,-0.30428 -0.397133,-0.31238 -0.588759,-0.35375 -0.890547,-0.19223 -0.411016,0.21996 -0.72882,-0.0209 -0.505108,-0.38294 0.0669,-0.10825 -0.0055,-0.24555 -0.160614,-0.30512 -0.376342,-0.14442 -0.09496,-1.46998 0.370537,-1.74551 0.181587,-0.10749 0.569978,-0.39083 0.863091,-0.62966 1.265577,-1.03116 2.835877,-1.11454 4.588618,-0.24365 0.642184,0.31909 1.264912,0.58016 1.383845,0.58016 0.118927,0 0.328019,0.20887 0.46464,0.46415 0.201403,0.37632 0.200644,0.55197 -0.0039,0.92829 -0.138809,0.25528 -0.241455,0.81592 -0.228099,1.24587 0.03003,0.96707 -0.283712,1.46841 -1.399355,2.23599 -0.931026,0.64056 -1.190928,0.69867 -1.727347,0.38627 z m -2.295603,-2.71998 c 0,-0.10749 -0.08794,-0.19543 -0.195431,-0.19543 -0.107487,0 -0.195431,0.0879 -0.195431,0.19543 0,0.10748 0.08794,0.19543 0.195431,0.19543 0.107488,0 0.195431,-0.0879 0.195431,-0.19543 z m 3.227653,-10e-4 c 0.453339,-0.17235 0.505679,-0.2812 0.424588,-0.88295 -0.107692,-0.79914 -0.37847,-1.18161 -0.940615,-1.32862 -0.37283,-0.0975 -0.37955,-0.0799 -0.09132,0.23856 0.392956,0.43421 0.403338,0.82471 0.018,0.67684 -0.203414,-0.0781 -0.293146,0.0136 -0.293146,0.29928 0,0.2594 0.126555,0.41417 0.342001,0.41827 0.286915,0.006 0.267686,0.0684 -0.119365,0.39086 -0.522264,0.43509 -0.21821,0.52161 0.659861,0.18776 z m -2.726799,-0.91782 c -0.01053,-0.78938 0.05663,-0.95435 0.476296,-1.1697 0.314347,-0.16131 0.37601,-0.25173 0.172923,-0.25359 -0.495508,-0.004 -1.345504,0.76452 -1.345504,1.21735 0,0.31483 0.488046,1.12493 0.677716,1.12493 0.01695,0 0.02532,-0.41355 0.01856,-0.91899 z m -0.109997,-1.81702 c 0.161228,-0.1042 0.205203,-0.18944 0.09772,-0.18944 -0.107488,0 -0.327343,0.0852 -0.488572,0.18944 -0.161229,0.10419 -0.205203,0.18944 -0.09771,0.18944 0.107487,0 0.327343,-0.0853 0.488572,-0.18944 z m 31.284199,2.81745 c 0.009,-0.22767 0.0557,-0.27398 0.11807,-0.11808 0.0564,0.14108 0.0495,0.30964 -0.0154,0.37458 -0.0649,0.0649 -0.11113,-0.0505 -0.10265,-0.2565 z m -19.16755,-0.0814 c 0,-0.10749 0.0931,-0.19543 0.20696,-0.19543 0.11384,0 0.15262,0.0879 0.0862,0.19543 -0.0664,0.10748 -0.15957,0.19542 -0.20697,0.19542 -0.0474,0 -0.0862,-0.0879 -0.0862,-0.19542 z m 1.79796,-0.23452 c -0.52929,-0.52928 0.0202,-2.11064 0.73344,-2.11064 0.3713,0 1.16278,0.45034 1.26649,0.72062 0.0584,0.15226 0.0413,0.24613 -0.0381,0.2086 -0.0794,-0.0375 -0.38924,-0.19049 -0.68855,-0.33994 -0.49402,-0.24667 -0.58199,-0.23394 -0.95394,0.13801 -0.6081,0.6081 -0.37336,1.32327 0.45507,1.3864 0.86924,0.0662 0.96746,0.23147 0.13759,0.23147 -0.37262,0 -0.78302,-0.10553 -0.912,-0.23452 z m -2.25124,-0.48415 c 0.0724,-0.19591 0.21854,-0.41435 0.32477,-0.48542 0.10623,-0.0711 0.18118,-0.44769 0.16654,-0.83692 -0.0226,-0.60076 0.0685,-0.7657 0.60283,-1.09149 0.42755,-0.26068 0.94286,-0.37548 1.60659,-0.35789 0.53743,0.0142 0.75728,0.0653 0.48857,0.11353 -0.85851,0.15401 -0.83032,0.38562 0.0618,0.5079 0.94988,0.1302 1.89248,0.49908 1.89248,0.74063 0,0.0847 -0.31988,0.0204 -0.71084,-0.14292 -0.39096,-0.16336 -0.94061,-0.30188 -1.22144,-0.30783 -0.80187,-0.017 -2.17175,0.41883 -2.17175,0.69094 0,0.13559 -0.10891,0.35544 -0.24202,0.48854 -0.13311,0.13311 -0.24304,0.39111 -0.24428,0.57333 -0.001,0.18221 -0.15586,0.36111 -0.34359,0.39755 -0.25822,0.0501 -0.30927,-0.0205 -0.20968,-0.28995 z m 2.03393,-1.99619 c 0.13749,0.21712 0.17284,0.203 0.17523,-0.07 0.002,-0.21271 -0.14477,-0.342 -0.38787,-0.342 -0.21497,0 -0.39086,0.0879 -0.39086,0.19543 0,0.10749 -0.12251,0.19543 -0.27223,0.19543 -0.14973,0 -0.32498,0.13745 -0.38945,0.30545 -0.0866,0.22556 0.041,0.19276 0.48787,-0.12541 0.49769,-0.35439 0.63565,-0.38259 0.77731,-0.15888 z m 0.89887,2.00235 c -0.28749,-0.28748 -0.1363,-0.87996 0.20764,-0.81373 0.1881,0.0362 0.342,0.23322 0.342,0.43776 0,0.38882 -0.31876,0.60686 -0.54964,0.37597 z m -24.036798,32.81557 c -0.04952,-0.19015 -0.09334,-0.0819 -0.09733,0.24057 -0.0039,0.32245 0.03656,0.47803 0.09009,0.34571 0.05351,-0.13231 0.05679,-0.39614 0.0073,-0.58628 z m -4.812067,-2.10459 -0.09613,-1.17258 -0.105349,0.97715 c -0.05794,0.53743 -0.06856,1.32892 -0.0236,1.75887 0.07913,0.75665 0.08559,0.76291 0.201475,0.19543 0.06585,-0.32247 0.07647,-1.11396 0.0236,-1.75887 z m -57.372314,1.27029 c 0.06643,-0.10749 0.03284,-0.19543 -0.07465,-0.19543 -0.107486,0 -0.249781,0.0879 -0.316211,0.19543 -0.06643,0.10749 -0.03284,0.19543 0.07465,0.19543 0.107486,0 0.249781,-0.0879 0.316211,-0.19543 z m 59.255726,-1.61001 c -0.04675,-0.24311 -0.08677,-0.0902 -0.08894,0.33972 -0.0022,0.42994 0.03608,0.62884 0.08499,0.44199 0.04892,-0.18685 0.05069,-0.53862 0.0039,-0.78171 z m 9.392066,-0.75021 -0.638234,-0.60136 0.584332,0.12828 c 0.321383,0.0705 0.649823,0.23123 0.729872,0.35706 0.09171,0.14419 0.146476,0.0842 0.148072,-0.16206 0.0033,-0.53552 -0.927658,-1.58018 -1.808931,-2.02948 l -0.728204,-0.37126 v 0.46751 c 0,0.25713 0.07328,0.46751 0.162857,0.46751 0.230636,0 0.208599,0.65809 -0.0272,0.81191 -0.220615,0.14393 0.719579,1.09659 1.330053,1.34769 0.782677,0.32195 0.87164,0.1724 0.247372,-0.4158 z m 3.768332,0.22805 c -0.540657,-1.01023 -4.504276,-4.13555 -4.504276,-3.55164 0,0.12323 0.153468,0.28294 0.341043,0.35492 0.548158,0.21035 3.026993,2.1792 3.656883,2.90454 0.65364,0.75269 0.797119,0.83549 0.50635,0.29218 z m -15.374399,-0.6527 c 0.07654,-0.31905 0.048,-0.53743 -0.07022,-0.53743 -0.109534,0 -0.199152,0.27848 -0.199152,0.61886 0,0.71161 0.08531,0.68582 0.269376,-0.0814 z m -52.253695,0.13028 c 0,-0.34511 -0.420714,-0.28501 -0.541503,0.0774 -0.04255,0.12764 0.06189,0.23207 0.232073,0.23207 0.170186,0 0.30943,-0.13924 0.30943,-0.30943 z m 54.462976,-0.70436 c -0.06238,-0.1559 -0.108694,-0.10959 -0.118071,0.11807 -0.0085,0.20602 0.0377,0.32145 0.102644,0.2565 0.06494,-0.0649 0.07188,-0.2335 0.01542,-0.37457 z m -2.145307,-1.77108 c -0.04658,-0.24185 -0.08469,-0.044 -0.08469,0.43972 0,0.48369 0.03811,0.68156 0.08469,0.43972 0.04658,-0.24185 0.04658,-0.63759 0,-0.87944 z m 10.024425,-1.21456 c 0,-0.05 -0.197868,-0.18673 -0.439717,-0.30393 -0.42225,-0.20462 -0.424643,-0.20101 -0.06036,0.0908 0.398728,0.31945 0.500078,0.36264 0.500078,0.21309 z m -43.011276,-2.25432 c -0.0071,-0.19329 -0.06795,-0.16 -0.178701,0.0977 -0.230865,0.53725 -0.230865,0.84581 0,0.48857 0.104196,-0.16123 0.184611,-0.42506 0.178701,-0.58629 z m -2.956463,-0.15728 c 0.386335,-0.58185 0.212443,-0.54058 -0.363906,0.0864 -0.26058,0.28347 -0.349393,0.47652 -0.197363,0.42901 0.152031,-0.0475 0.404601,-0.27943 0.561269,-0.51538 z m 37.24797,-0.53688 c 0.06674,-0.17391 0.03397,-0.25236 -0.07681,-0.18389 -0.106255,0.0657 -0.193192,0.20215 -0.193192,0.3033 0,0.28111 0.140078,0.21916 0.269998,-0.11941 z m 0.511721,-0.77156 c 0.140231,-0.16897 0.159224,-0.29315 0.04484,-0.29315 -0.109148,0 -0.24907,0.13192 -0.310941,0.29315 -0.06187,0.16123 -0.08205,0.29314 -0.04484,0.29314 0.03721,0 0.177132,-0.13191 0.310941,-0.29314 z M 41.772264,129.6541 c 0.06055,-0.15779 0.02599,-0.33887 -0.07681,-0.4024 -0.102792,-0.0635 -0.186895,0.0656 -0.186895,0.28689 0,0.47188 0.10868,0.51948 0.263701,0.11551 z m -4.15571,-0.71075 c -0.102982,-0.25745 -0.192815,-0.36535 -0.199628,-0.23979 -0.01655,0.30499 0.211109,0.88364 0.309098,0.78565 0.04277,-0.0428 -0.0065,-0.28841 -0.10947,-0.54586 z m -18.09384,-0.76124 c 0.06643,-0.10748 0.02765,-0.19542 -0.08618,-0.19542 -0.11383,0 -0.206964,0.0879 -0.206964,0.19542 0,0.10749 0.03878,0.19543 0.08618,0.19543 0.0474,0 0.140534,-0.0879 0.206964,-0.19543 z m 64.58954,-0.9236 c 0,-0.61259 -0.09361,-0.54173 -0.273486,0.20705 -0.08726,0.36324 -0.0631,0.51057 0.07022,0.42818 0.111792,-0.0691 0.203264,-0.35495 0.203264,-0.63523 z m 18.174976,0.52114 c 0,-0.11383 0.0836,-0.1553 0.18576,-0.0922 0.10217,0.0632 0.5199,-0.0718 0.92829,-0.29997 l 0.74253,-0.41479 -1.07487,0.15818 c -0.59117,0.087 -1.65113,0.16122 -2.35546,0.16494 -1.236004,0.007 -1.266624,0.0185 -0.879434,0.34226 0.452354,0.3783 2.453184,0.49375 2.453184,0.14154 z m -17.619196,-2.43134 c 0.005,-0.22251 -0.09775,-0.0962 -0.238103,0.29314 -0.135608,0.37621 -0.200356,0.77106 -0.14389,0.87747 0.114418,0.21561 0.368881,-0.56419 0.381993,-1.17061 z m 11.297993,0.20386 c -0.06365,-0.16586 -0.207169,-0.30157 -0.318939,-0.30157 -0.128628,0 -0.115659,0.14021 0.03534,0.38197 0.269647,0.43177 0.459505,0.37795 0.283613,-0.0804 z m -53.708962,-4.4056 c 0.0052,-0.44413 -0.0095,-0.45302 -0.162213,-0.0977 -0.14598,0.33972 -0.17214,0.31415 -0.199916,-0.19542 -0.08843,-1.62229 -0.18337,-2.2072 -0.459966,-2.83373 -0.270971,-0.6138 -0.302261,-0.63386 -0.304839,-0.19544 -0.0016,0.26872 0.08605,0.87429 0.194728,1.3457 0.108683,0.47142 0.208864,1.15668 0.222628,1.52281 0.01376,0.36613 0.09858,0.71114 0.18848,0.76671 0.0899,0.0556 0.172222,0.33767 0.182936,0.62692 l 0.01948,0.5259 0.156469,-0.48858 c 0.08606,-0.26872 0.159055,-0.70843 0.162213,-0.97715 z m 6.436155,-1.27029 v -0.58629 l -0.149186,0.58629 c -0.08205,0.32246 -0.149185,0.85012 -0.149185,1.17257 v 0.5863 l 0.149185,-0.5863 c 0.08205,-0.32245 0.149186,-0.85011 0.149186,-1.17257 z m -5.978806,-0.10005 c -0.04266,-0.4473 -0.144042,-0.73969 -0.2253,-0.64976 -0.178462,0.19752 -0.01657,1.66045 0.170925,1.54457 0.07256,-0.0449 0.09703,-0.44751 0.05437,-0.89481 z m -0.333126,-1.33639 c -0.110117,-0.11591 -0.481865,0.17787 -0.481865,0.38081 0,0.10539 0.123044,0.0782 0.273433,-0.0604 0.150389,-0.13859 0.244184,-0.28278 0.208432,-0.32042 z m 1.112364,-0.89311 c 0.03457,-0.42137 -0.02925,-0.79682 -0.141817,-0.83434 -0.12451,-0.0415 -0.204667,0.31654 -0.204667,0.91419 0,1.12573 0.25235,1.06757 0.346484,-0.0799 z m -1.476972,-0.0352 c -0.06955,-0.18125 -0.17043,-0.28557 -0.224173,-0.23183 -0.05374,0.0537 -0.04081,0.24601 0.02875,0.42726 0.06955,0.18125 0.17043,0.28557 0.224174,0.23183 0.05374,-0.0537 0.0408,-0.24601 -0.02875,-0.42726 z m 0.66147,-0.43171 c -0.0026,-0.28479 -0.02918,-0.28995 -0.192438,-0.0373 -0.247336,0.38273 -0.247336,0.64144 0,0.48857 0.107486,-0.0664 0.194083,-0.26949 0.192438,-0.45125 z m 51.987312,0.35967 c 0,-0.10411 -0.131918,-0.13867 -0.293146,-0.0768 -0.161229,0.0619 -0.293147,0.14706 -0.293147,0.1893 0,0.0423 0.131918,0.0768 0.293147,0.0768 0.161228,0 0.293146,-0.0852 0.293146,-0.1893 z m -55.404341,-0.87878 c 0.107486,-0.13007 0.323014,-0.27863 0.478949,-0.33013 0.193792,-0.064 0.21424,-0.13646 0.06461,-0.22893 -0.120399,-0.0744 -0.352063,-0.002 -0.514809,0.1606 -0.26425,0.26426 -0.321996,0.22376 -0.539828,-0.37865 -0.280394,-0.77542 -0.625625,-0.73692 -0.443588,0.0495 0.117819,0.50896 0.111905,0.51319 -0.188498,0.13459 -0.359676,-0.4533 -0.420739,-0.13615 -0.106552,0.55342 0.228172,0.50078 0.852275,0.52057 1.249713,0.0396 z m 2.189933,-0.73962 c -0.04658,-0.24184 -0.08469,-0.044 -0.08469,0.43972 0,0.48368 0.03811,0.68156 0.08469,0.43971 0.04658,-0.24184 0.04658,-0.63759 0,-0.87943 z m 1.621598,-0.83058 c 0.168779,-0.96983 0.180982,-1.62397 0.04192,-2.24744 l -0.196149,-0.87943 -0.02262,1.368 c -0.01245,0.75241 -0.06661,1.8517 -0.12036,2.44288 -0.122325,1.34533 -0.01161,1.09053 0.297209,-0.68401 z m 19.472049,1.13663 c 0.505279,-0.33107 0.531608,-0.33187 0.40901,-0.0123 -0.08653,0.22548 -0.03747,0.34147 0.144442,0.34147 1.002035,0 -0.40537,-1.53099 -1.920479,-2.08911 l -1.060572,-0.39069 -0.167926,0.79287 c -0.227299,1.07317 -0.983923,1.53817 -1.780225,1.09404 -0.300511,-0.16759 -0.640261,-0.59836 -0.770689,-0.97714 -0.162311,-0.47138 -0.236611,-0.55169 -0.244287,-0.26405 -0.0061,0.22735 0.170571,0.64423 0.392528,0.9264 0.221959,0.28218 0.356535,0.58913 0.29906,0.68214 -0.05748,0.093 0.104862,0.12905 0.360748,0.0801 0.255888,-0.0489 0.626986,0.0112 0.824663,0.13371 0.52597,0.32581 2.852845,0.11563 3.513727,-0.3174 z m -16.970148,-0.32491 c 0.270514,0.0698 0.335886,-0.0683 0.356875,-0.75398 0.01413,-0.4617 -0.0143,-0.68556 -0.06319,-0.49746 -0.04888,0.18811 -0.214348,0.34201 -0.367696,0.34201 -0.153349,0 -0.278816,0.13191 -0.278816,0.29314 0,0.16123 -0.08794,0.29315 -0.195429,0.29315 -0.227533,0 -0.264053,0.64689 -0.04886,0.86541 0.08062,0.0819 0.173428,-0.0259 0.206253,-0.23944 0.03923,-0.25524 0.173168,-0.35901 0.390859,-0.30283 z m 2.169019,-1.30029 c 0.005,-0.47216 -0.509716,0.62005 -0.644674,1.368 -0.11682,0.64744 -0.102966,0.63699 0.259081,-0.19542 0.210375,-0.48369 0.383891,-1.01135 0.385593,-1.17258 z m -7.330533,0.8628 c 0.262868,-0.68503 0.358664,-2.37545 0.142196,-2.50923 -0.128397,-0.0794 -0.233345,0.011 -0.253265,0.21803 -0.0187,0.19444 -0.05708,0.61736 -0.08528,0.93982 -0.0282,0.32246 -0.111086,0.82814 -0.184198,1.12373 -0.142328,0.57542 0.174389,0.7649 0.380549,0.22765 z m 23.374518,0.0546 c 0,-0.0328 -0.219859,-0.35775 -0.488575,-0.72197 -0.268716,-0.36422 -0.488574,-0.56906 -0.488574,-0.45518 0,0.11387 0.18227,0.43876 0.405044,0.72197 0.362068,0.4603 0.572105,0.6274 0.572105,0.45518 z M 39.889394,112.9385 c 0.06478,-0.16123 0.103822,-0.3591 0.08676,-0.43971 -0.01706,-0.0806 0.04548,-0.14658 0.138988,-0.14658 0.398182,0 0.514375,-1.91962 0.33713,-5.56974 -0.07107,-1.46359 -0.05388,-1.61123 0.102401,-0.87944 0.103294,0.48369 0.313536,1.4071 0.467201,2.05201 l 0.279392,1.17258 -0.07059,-1.57283 c -0.09195,-2.04867 -0.60937,-3.96846 -1.222089,-4.53435 -0.919565,-0.84928 -1.296469,-0.49757 -1.518396,1.41687 -0.171999,1.48374 -0.488246,2.58122 -0.824131,2.85998 -0.41014,0.34038 -0.312533,0.50613 0.373633,0.63447 1.009502,0.1888 1.082188,0.21826 1.523306,0.61747 0.715181,0.64723 0.800895,0.98115 0.484801,1.88863 -0.341619,0.98077 -0.37657,1.39963 -0.102667,1.23035 0.107486,-0.0664 0.19543,-0.0331 0.19543,0.0741 0,0.1072 -0.241845,0.17835 -0.537432,0.15811 -0.494131,-0.0339 -0.533336,0.0151 -0.486591,0.6075 0.02796,0.35435 -0.04109,0.81606 -0.153448,1.026 -0.161423,0.30162 -0.141335,0.38172 0.09573,0.38172 0.212276,0 0.30681,0.21433 0.323238,0.73286 0.02054,0.64823 0.04437,0.60874 0.206387,-0.342 0.100744,-0.59117 0.236175,-1.20678 0.300954,-1.36801 z m 1.757389,1.32143 c -0.04674,-0.24309 -0.08677,-0.0902 -0.08894,0.33973 -0.0022,0.42994 0.03608,0.62884 0.08499,0.44199 0.04892,-0.18685 0.05069,-0.53862 0.0039,-0.78172 z m 2.140937,0.38858 c -0.05421,-0.13435 -0.09857,-0.0244 -0.09857,0.24429 0,0.26871 0.04436,0.37864 0.09857,0.24429 0.05421,-0.13436 0.05421,-0.35422 0,-0.48858 z m 14.876505,-0.16957 c 0.01397,-0.49131 -0.03016,-0.55113 -0.263676,-0.35733 -0.154251,0.12802 -0.280455,0.43909 -0.280455,0.69127 0,0.6963 0.523982,0.37472 0.544131,-0.33394 z m -12.683007,-0.64726 c 0.110324,-0.0682 0.155665,-0.24104 0.100759,-0.38413 -0.0549,-0.14308 0.04135,-1.07386 0.213904,-2.06838 0.172553,-0.99454 0.272865,-1.84911 0.222911,-1.89906 -0.04995,-0.05 -0.243906,0.59782 -0.43101,1.4395 -0.187105,0.84167 -0.480496,1.64577 -0.65198,1.78688 -0.211236,0.17382 -0.239421,0.28723 -0.08739,0.35166 0.13812,0.0585 0.192733,0.41072 0.142045,0.91601 -0.06401,0.63806 -0.04086,0.72743 0.103909,0.40121 0.102445,-0.23085 0.27653,-0.47551 0.386854,-0.54369 z m 2.350658,0.084 c -0.0071,-0.19329 -0.06795,-0.16001 -0.178701,0.0977 -0.230865,0.53726 -0.230865,0.84582 0,0.48858 0.104196,-0.16123 0.184611,-0.42506 0.178701,-0.58629 z m -9.754759,0.27224 c 0,-0.21035 -0.105478,-0.27358 -0.319407,-0.19149 -0.277387,0.10645 -0.300639,0.0128 -0.176751,-0.71195 0.07846,-0.45899 0.132844,-1.05438 0.120852,-1.3231 -0.012,-0.26871 -0.02588,-0.7524 -0.03086,-1.07486 -0.01129,-0.73088 -0.358052,-1.66115 -0.6192,-1.66115 -0.354804,0 0.132236,4.87997 0.511698,5.12703 0.34905,0.22727 0.513668,0.17455 0.513668,-0.16448 z m 6.584613,-0.61052 c -0.04955,-0.19015 -0.09335,-0.0819 -0.09733,0.24057 -0.004,0.32246 0.03656,0.47803 0.09009,0.34572 0.05353,-0.13231 0.05679,-0.39614 0.0073,-0.58629 z M 3.0272261,113.07405 c -0.154723,-0.15473 -0.213757,-0.10401 -0.213757,0.18361 0,0.51667 0.273299,0.79091 0.360329,0.36158 0.03695,-0.18229 -0.02901,-0.42763 -0.146572,-0.54519 z m 38.8121979,-0.083 c -0.04955,-0.19015 -0.09335,-0.0819 -0.09733,0.24057 -0.004,0.32246 0.03656,0.47803 0.09009,0.34572 0.05353,-0.13231 0.05679,-0.39614 0.0073,-0.58629 z m 7.571435,-1.66658 c -0.0643,-0.29653 -0.197698,-0.48921 -0.296437,-0.42818 -0.216997,0.13411 -0.218504,-0.50229 -0.0038,-1.61126 0.104421,-0.53939 0.0848,-0.89863 -0.05737,-1.05044 -0.158507,-0.16926 -0.150987,-0.25458 0.02823,-0.32029 0.134358,-0.0493 0.244287,-0.22493 0.244287,-0.39036 0,-0.24002 -0.05701,-0.25347 -0.282181,-0.0666 -0.207601,0.17229 -0.252249,0.4869 -0.168933,1.19037 0.08296,0.7005 0.02913,1.08457 -0.201334,1.4363 -0.235472,0.35937 -0.25442,0.50447 -0.07535,0.57699 0.138745,0.0562 0.09763,0.10337 -0.09789,0.11232 -0.27322,0.0125 -0.314202,0.13581 -0.216215,0.65057 0.147244,0.77354 0.260187,0.94115 0.260187,0.38611 0,-0.22655 0.08794,-0.46625 0.19543,-0.53268 0.107486,-0.0664 0.196776,0.0383 0.198422,0.23275 0.0025,0.29975 0.03181,0.30894 0.192437,0.0604 0.166006,-0.25687 0.189815,-0.25486 0.192438,0.0163 0.0016,0.17019 -0.05288,0.3653 -0.121169,0.43359 -0.06829,0.0683 -0.146343,0.45671 -0.173457,0.86315 l -0.0493,0.73899 0.274465,-0.87944 c 0.150956,-0.48369 0.221856,-1.12204 0.157556,-1.41857 z m -7.382007,0.58799 c -0.05421,-0.13435 -0.09857,-0.0244 -0.09857,0.2443 0,0.26871 0.04436,0.37864 0.09857,0.24428 0.05421,-0.13436 0.05421,-0.35421 0,-0.48858 z m 1.567509,-0.18321 c -0.06238,-0.1559 -0.108694,-0.10959 -0.118071,0.11807 -0.0085,0.20602 0.0377,0.32145 0.102643,0.2565 0.06494,-0.0649 0.07188,-0.2335 0.01542,-0.37457 z m 2.172696,-0.84279 c 0,-0.30949 -0.03257,-0.28915 -0.156469,0.0977 -0.08606,0.26871 -0.156469,0.66445 -0.156469,0.87943 0,0.30949 0.03257,0.28915 0.156469,-0.0977 0.08606,-0.26871 0.156469,-0.66446 0.156469,-0.87943 z m -3.481767,0.0373 c 0.0017,-0.087 -0.08495,-0.10376 -0.192438,-0.0373 -0.107486,0.0664 -0.194083,0.26949 -0.192437,0.45125 0.0026,0.28479 0.02918,0.28996 0.192437,0.0373 0.104195,-0.16123 0.190793,-0.36429 0.192438,-0.45125 z m 16.905569,-0.22434 c -0.972666,-1.04448 -1.724846,-1.19076 -2.082836,-0.40506 -0.389791,0.8555 0.0537,1.12958 2.008711,1.24138 l 0.900927,0.0515 z m -9.479238,-1.04599 c 0.0017,-0.14071 -0.08495,-0.20147 -0.192438,-0.13504 -0.107486,0.0664 -0.194083,0.31346 -0.192437,0.54897 0.0024,0.3481 0.03842,0.37335 0.192437,0.13503 0.104196,-0.16122 0.190793,-0.40826 0.192438,-0.54896 z m -1.308441,0.1583 c 0.05619,-0.21487 0.02247,-0.43991 -0.07492,-0.50011 -0.0974,-0.0602 -0.177083,0.1156 -0.177083,0.39066 0,0.59881 0.111383,0.64718 0.252005,0.10945 z m -1.686014,-1.22163 c -0.05421,-0.13436 -0.09857,-0.0244 -0.09857,0.24428 0,0.26872 0.04436,0.37865 0.09857,0.24429 0.05421,-0.13436 0.05421,-0.35421 0,-0.48857 z m 2.937449,-1.07115 c -0.04955,-0.19015 -0.09335,-0.0819 -0.09733,0.24057 -0.004,0.32246 0.03656,0.47803 0.09009,0.34572 0.05353,-0.13231 0.05679,-0.39614 0.0073,-0.58629 z m 35.06618,0.28617 c -0.193011,-0.19157 -0.215458,-0.16912 -0.109405,0.1094 0.07339,0.19274 0.182668,0.3012 0.24284,0.24103 0.06017,-0.0602 1.22e-4,-0.21786 -0.133435,-0.35043 z m -35.966717,-1.80737 -0.132226,-0.77882 -0.136557,0.65424 c -0.07511,0.35983 -0.07928,0.88243 -0.0093,1.16134 0.115545,0.46036 0.140318,0.47185 0.268782,0.12457 0.07783,-0.21039 0.082,-0.73299 0.0093,-1.16133 z m 4.943699,0.38361 c 0.06674,-0.17392 0.03398,-0.25236 -0.07681,-0.18389 -0.106255,0.0657 -0.193192,0.20215 -0.193192,0.30329 0,0.28112 0.140078,0.21917 0.269998,-0.1194 z m 0.898569,-1.47186 c 0.125393,-0.21758 0.09998,-0.30943 -0.08563,-0.30943 -0.145177,0 -0.222374,0.10837 -0.171552,0.24081 0.05082,0.13244 -0.0016,0.29886 -0.116348,0.36982 -0.114812,0.071 -0.207405,0.23375 -0.20576,0.36177 0.0029,0.22802 0.187599,0.0167 0.579286,-0.66297 z m -9.712518,-1.184 c 0.191458,-0.33633 0.312289,-0.64733 0.268514,-0.69111 -0.04377,-0.0438 -0.263412,0.23197 -0.488085,0.61276 -0.224672,0.38079 -0.345504,0.69179 -0.268513,0.69111 0.07699,-5.5e-4 0.296627,-0.27641 0.488084,-0.61276 z m 10.718799,-0.21658 c 0.212456,-0.39872 0.203986,-0.41471 -0.09084,-0.1715 -0.178828,0.14752 -0.32514,0.34539 -0.32514,0.43972 0,0.29852 0.173665,0.18654 0.41598,-0.26822 z m -21.913255,-0.61235 c 0,-0.0412 -0.176008,-0.12095 -0.391129,-0.17721 -0.215121,-0.0562 -0.341846,-0.0225 -0.28161,0.0749 0.10519,0.1702 0.672739,0.25649 0.672739,0.10228 z m 30.877904,-0.12051 c 0.229284,-0.14817 0.17858,-0.1901 -0.232753,-0.19244 -0.289244,-0.002 -0.580251,0.085 -0.646681,0.19244 -0.154228,0.24955 0.493292,0.24955 0.879434,0 z M 0.62788615,101.67194 c 0.03402,-0.0161 -0.01861,-0.079 -0.116976,-0.13981 -0.21269,-0.13145 -1.019748,0.5767 -1.019748,0.89478 0,0.12204 0.241845,0.009 0.537432,-0.2519 0.295588,-0.26058 0.565269,-0.48696 0.599292,-0.50307 z m 51.23246885,0.0293 c 0,-0.10749 -0.08525,-0.0635 -0.189444,0.0977 -0.104195,0.16123 -0.189444,0.38109 -0.189444,0.48858 0,0.10748 0.08525,0.0635 0.189444,-0.0977 0.104196,-0.16123 0.189444,-0.38108 0.189444,-0.48857 z m 0.585349,-1.35824 c 0.01253,-0.33558 -0.334462,0.16448 -0.467835,0.67424 l -0.127833,0.48857 0.294372,-0.48857 c 0.161904,-0.26872 0.297489,-0.57213 0.301296,-0.67424 z m 32.277091,0.0358 c -0.193011,-0.19157 -0.215458,-0.16912 -0.109405,0.1094 0.07339,0.19274 0.182668,0.3012 0.24284,0.24103 0.06017,-0.0602 1.22e-4,-0.21786 -0.133435,-0.35043 z M 46.551994,99.93717 c -0.06017,-0.0602 -0.169448,0.0483 -0.242838,0.24103 -0.106055,0.27852 -0.08361,0.30097 0.109402,0.1094 0.133561,-0.13257 0.193607,-0.29026 0.133436,-0.35043 z m 21.756867,0.20825 c 0.484958,-0.21055 0.551957,-0.2875 0.25522,-0.29315 -0.221301,-0.004 -0.573074,0.12147 -0.781719,0.27928 -0.487413,0.36867 -0.301957,0.37355 0.526499,0.0139 z M 1.8107381,99.47996 c -0.11453,-0.0393 -0.351531,0.0717 -0.52667,0.24689 -0.29429295,0.29429 -0.278506,0.29972 0.208235,0.0715 0.289668,-0.13579 0.432964,-0.27908 0.318435,-0.31843 z m 50.9350369,0.36468 c 0.06643,-0.10748 0.02765,-0.19543 -0.08618,-0.19543 -0.11383,0 -0.206964,0.0879 -0.206964,0.19543 0,0.10749 0.03878,0.19543 0.08618,0.19543 0.0474,0 0.140533,-0.0879 0.206964,-0.19543 z m 31.401994,-0.92733 c -0.316834,-0.6644 -0.61582,-0.54626 -0.61582,0.24333 0,0.29338 0.04188,0.32473 0.16801,0.12571 0.136554,-0.21552 0.197348,-0.21768 0.324751,-0.0115 0.092,0.14887 0.06123,0.28546 -0.0745,0.33071 -0.127187,0.0424 -0.182081,0.15664 -0.121986,0.25387 0.06035,0.0976 0.22446,0.0692 0.366565,-0.0636 0.212344,-0.19836 0.204129,-0.35186 -0.04703,-0.87852 z m -49.479248,0.54335 c 0,-0.1037 -0.175887,-0.28268 -0.390859,-0.39773 -0.469333,-0.25118 -0.502745,-0.13981 -0.08376,0.27918 0.353997,0.354 0.474615,0.38413 0.474615,0.11855 z M 2.4861241,99.25836 c 0.445088,0 0.543934,-0.057 0.381123,-0.21983 -0.264455,-0.26445 -1.93305895,-0.0597 -2.13162295,0.26162 -0.09162,0.14825 0.06565,0.17499 0.50844795,0.0864 0.352608,-0.0705 0.911531,-0.12822 1.242052,-0.12822 z M 34.622701,98.40224 c -0.186431,-0.14157 -0.277053,-0.31931 -0.201387,-0.39497 0.07567,-0.0757 -0.02396,-0.0756 -0.221398,1.7e-4 -0.329172,0.12632 -0.320566,0.15905 0.103671,0.39426 0.594853,0.32981 0.753087,0.33008 0.319114,5.3e-4 z m 48.90326,0.0953 c 0,-0.096 -0.127431,-0.22343 -0.283186,-0.2832 -0.18928,-0.0726 -0.247157,-0.0148 -0.174524,0.17452 0.118617,0.30912 0.45771,0.38963 0.45771,0.10868 z m 0.08141,-0.87238 c -0.125642,-0.32742 -0.472263,-0.44836 -0.472263,-0.16477 0,0.19013 0.435994,0.64539 0.529001,0.55238 0.03656,-0.0366 0.01102,-0.21099 -0.05674,-0.38761 z m -12.621247,0.0939 c 0.30385,-0.19261 -0.225523,-0.39715 -1.335671,-0.51609 l -0.684005,-0.0733 0.78172,0.37522 c 0.903397,0.43362 0.89424,0.43204 1.237956,0.21416 z m 1.204916,-0.50768 c 0,-0.051 -0.26383,-0.22913 -0.58629,-0.39588 -0.322458,-0.16675 -0.586289,-0.22031 -0.586289,-0.11902 0,0.14574 0.433596,0.37423 1.123721,0.59217 0.02687,0.008 0.04886,-0.0263 0.04886,-0.0773 z m 10.642575,-0.5071 c -0.183774,-0.29735 -0.477399,-0.20652 -0.3559,0.1101 0.06163,0.16061 0.192222,0.24248 0.290199,0.18193 0.09798,-0.0606 0.127543,-0.19197 0.0657,-0.29203 z M 9.7958753,94.6169 c -0.04216,-0.40307 -0.07666,-0.0733 -0.07666,0.73286 0,0.80615 0.0345,1.13594 0.07666,0.73286 0.04216,-0.40307 0.04216,-1.06264 0,-1.46572 z M 9.3171388,96.08734 C 9.2089864,95.95039 9.1083941,95.70642 9.0936002,95.54519 9.0003242,94.52864 8.7941722,93.76977 8.5580651,93.57381 8.4081558,93.4494 8.2793213,93.11653 8.2717668,92.8341 c -0.012232,-0.45719 -0.0311,-0.47064 -0.1720838,-0.12264 -0.1004759,0.24801 -0.066121,0.498 0.094001,0.68401 0.1387922,0.16123 0.2949719,0.55697 0.3470665,0.87943 0.2342768,1.45016 0.6237068,2.41077 0.875313,2.15917 0.053741,-0.0537 0.00923,-0.20977 -0.098925,-0.34673 z M 50.489853,94.47033 c 0.007,-0.20958 -0.713907,0.60564 -1.382572,1.56343 -0.22512,0.32246 -0.0076,0.14658 0.483364,-0.39085 0.490969,-0.53743 0.895612,-1.06509 0.899208,-1.17258 z m 65.580347,1.30804 c -0.0602,-0.0602 -0.21787,-1.3e-4 -0.35044,0.13343 -0.19157,0.19301 -0.16912,0.21546 0.10941,0.1094 0.19273,-0.0734 0.30119,-0.18266 0.24103,-0.24283 z M 7.0152088,95.15433 C 6.8381281,94.8119 6.6492717,94.57569 6.5955284,94.62944 c -0.053741,0.0537 0.047171,0.37789 0.2242505,0.72032 0.1770811,0.34244 0.365937,0.57864 0.4196803,0.5249 0.053741,-0.0537 -0.047171,-0.37789 -0.2242504,-0.72033 z m 9.0122642,-1.28214 c -0.05673,-0.14783 -0.01903,-0.32076 0.08376,-0.38428 0.102792,-0.0635 0.179817,-0.44011 0.171167,-0.83684 l -0.01573,-0.72133 -0.234616,0.87944 c -0.144215,0.54057 -0.33347,0.85825 -0.491169,0.82447 -0.141104,-0.0302 -0.215329,0.0577 -0.164944,0.19543 0.05038,0.13771 0.190543,0.2284 0.311465,0.20153 0.273484,-0.0608 0.276815,0.0658 0.01462,0.55576 -0.112879,0.21091 -0.280564,0.33693 -0.372634,0.28002 -0.09207,-0.0569 -0.118057,0.0852 -0.05775,0.31585 0.0983,0.37588 0.148446,0.34368 0.484308,-0.31099 0.206063,-0.40166 0.328246,-0.85123 0.27152,-0.99906 z m 58.676158,1.26071 c -0.367391,-0.23279 -0.802996,-0.21639 -0.654041,0.0246 0.06751,0.10924 0.204619,0.14802 0.304679,0.0862 0.100058,-0.0618 0.181925,-0.0141 0.181925,0.10606 0,0.12017 0.09733,0.15834 0.216294,0.0848 0.15078,-0.0932 0.135982,-0.18457 -0.04886,-0.30169 z m -39.351106,0.0214 c -0.06643,-0.10749 -0.208725,-0.19543 -0.316211,-0.19543 -0.107486,0 -0.141079,0.0879 -0.07465,0.19543 0.06643,0.10748 0.208724,0.19543 0.316211,0.19543 0.107486,0 0.141079,-0.0879 0.07465,-0.19543 z m 80.332765,-0.41238 c 0.2306,-0.44594 0.24495,-0.56794 0.0539,-0.45814 -0.56931,0.32715 -0.72114,0.52029 -0.61876,0.78709 0.15057,0.39237 0.20969,0.35794 0.56489,-0.32895 z M 20.698293,93.43104 c -0.167773,-0.16778 -0.286493,0.0567 -0.402168,0.7604 l -0.110093,0.66975 0.306486,-0.66472 c 0.16857,-0.36559 0.261167,-0.71004 0.205775,-0.76543 z m 1.842724,0.47757 c -0.04777,-0.0462 -0.253425,0.14923 -0.45701,0.43429 l -0.370154,0.51829 0.457012,-0.43429 c 0.251356,-0.23886 0.417925,-0.47209 0.370152,-0.51829 z m -11.715852,-0.0661 c -0.212942,-0.33209 -0.218457,-0.33167 -0.111547,0.009 0.06186,0.19689 0.119414,0.46072 0.1279,0.58629 0.01113,0.16478 0.04217,0.16238 0.111546,-0.009 0.05287,-0.13031 -0.0047,-0.39414 -0.127899,-0.58629 z m 94.491225,0.53007 c 0.0664,-0.10749 -0.0207,-0.19543 -0.1936,-0.19543 -0.17292,0 -0.5798,-0.13725 -0.90419,-0.305 -0.56965,-0.29458 -0.58275,-0.29182 -0.3834,0.0807 0.30609,0.57193 1.22601,0.83263 1.48119,0.41975 z M 4.6700521,94.17715 c -0.06643,-0.10749 -0.225522,-0.19409 -0.353536,-0.19244 -0.139853,0.002 -0.115748,0.0786 0.06039,0.19244 0.375445,0.24263 0.443099,0.24263 0.293145,0 z M 7.1129237,93.98172 C 6.9978738,93.76674 6.8597703,93.59086 6.806027,93.59086 c -0.053741,0 -0.0036,0.17588 0.1114668,0.39086 0.1150499,0.21497 0.2531535,0.39086 0.3068967,0.39086 0.053741,0 0.0036,-0.17589 -0.1114668,-0.39086 z m 43.9716983,-0.0231 c 0,-0.10749 -0.08794,-0.14108 -0.19543,-0.0746 -0.107486,0.0664 -0.19543,0.20872 -0.19543,0.31621 0,0.10748 0.08794,0.14108 0.19543,0.0746 0.107486,-0.0664 0.19543,-0.20873 0.19543,-0.31621 z m 0.586289,-0.37933 c 0,-0.10114 -0.08794,-0.1839 -0.19543,-0.1839 -0.107486,0 -0.19543,0.13711 -0.19543,0.30468 0,0.16757 0.08794,0.25033 0.19543,0.1839 0.107487,-0.0664 0.19543,-0.20354 0.19543,-0.30468 z m 63.344179,-0.13504 c 0.24309,-0.30996 0.23618,-0.31687 -0.0738,-0.0738 -0.1881,0.14752 -0.342,0.30142 -0.342,0.342 0,0.16085 0.16049,0.0573 0.41579,-0.26821 z M 23.522809,92.72297 c -0.0034,-0.11382 -0.135335,-0.0362 -0.293144,0.17242 -0.157812,0.20864 -0.284134,0.47247 -0.280716,0.58629 0.0034,0.11381 0.135336,0.0362 0.293145,-0.17242 0.157812,-0.20865 0.284134,-0.47248 0.280715,-0.58629 z M 10.95959,92.96796 c -0.06239,-0.1559 -0.108695,-0.10959 -0.118072,0.11808 -0.0085,0.20601 0.0377,0.32144 0.102643,0.2565 0.06494,-0.0649 0.07188,-0.2335 0.01543,-0.37458 z m 4.96686,-1.15422 c 0.02992,-0.36614 -0.05129,-0.86003 -0.180461,-1.09752 -0.129175,-0.23749 -0.21169,-0.50132 -0.183367,-0.58629 0.02832,-0.085 -0.02247,-0.15448 -0.112873,-0.15448 -0.0904,0 -0.285739,-0.23165 -0.43408,-0.51477 -0.304749,-0.58163 -1.840447,-1.48978 -1.850638,-1.09439 -0.0041,0.15848 -0.08783,0.13671 -0.244287,-0.0635 -0.140184,-0.17939 -0.55949,-0.31098 -1.019791,-0.32006 -0.612722,-0.0121 -0.690156,0.0194 -0.35818,0.14578 0.232947,0.0887 0.584721,0.18872 0.78172,0.22235 0.196998,0.0336 0.528663,0.21504 0.737031,0.40314 0.208369,0.1881 0.472199,0.3392 0.58629,0.33579 0.11409,-0.003 0.03673,-0.13534 -0.171918,-0.29315 -0.208645,-0.15781 -0.312793,-0.28693 -0.23144,-0.28693 0.746466,0 2.100341,1.70297 2.276455,2.86344 0.07209,0.47501 0.06485,0.90458 -0.01609,0.9546 -0.08094,0.05 -0.09713,0.28225 -0.03599,0.51606 0.108916,0.41649 0.114128,0.41711 0.25719,0.0304 0.08031,-0.21711 0.170502,-0.69431 0.200423,-1.06046 z m 2.846259,0.75115 c -0.05421,-0.13436 -0.09857,-0.0244 -0.09857,0.24429 0,0.26871 0.04436,0.37864 0.09857,0.24428 0.05421,-0.13435 0.05421,-0.35421 0,-0.48857 z m 33.627574,-0.45811 c 0.132438,-0.13192 0.352297,-0.27964 0.488574,-0.32826 0.136277,-0.0486 0.187605,-0.15329 0.114062,-0.2326 -0.07354,-0.0793 -0.249431,-0.0457 -0.390859,0.0746 -0.879976,0.74865 -1.215358,0.99325 -1.361911,0.99325 -0.09104,0 -0.165527,0.0981 -0.165527,0.2179 0,0.21589 0.830654,-0.24177 1.315661,-0.72487 z m 60.440147,0.48606 c 0,-0.096 0.0931,-0.17452 0.20697,-0.17452 0.11383,0 0.15261,0.0879 0.0862,0.19543 -0.238,0.38509 0.0346,0.18435 0.59707,-0.43972 0.31486,-0.34933 0.44564,-0.52522 0.29062,-0.39086 -0.33696,0.29204 -0.6672,0.32451 -0.49683,0.0489 0.23266,-0.37645 -0.0269,-0.1894 -0.69453,0.50056 -0.37357,0.38606 -0.52118,0.63783 -0.33148,0.56538 0.1881,-0.0718 0.342,-0.20914 0.342,-0.30513 z m 2.0531,0.0197 c 0.51066,-0.56427 0.28389,-0.61984 -0.29012,-0.0711 -0.26645,0.25473 -0.39001,0.46314 -0.27458,0.46314 0.11544,0 0.36956,-0.17642 0.5647,-0.39205 z M 21.14729,92.09751 C 21.162,91.7061 21.11584,91.44406 21.044688,91.5152 c -0.238122,0.23813 -0.220715,1.29398 0.02133,1.29398 0.02998,0 0.06656,-0.32025 0.08127,-0.71167 z m -2.119093,-0.41205 c -0.0051,-0.46102 -0.03439,-0.48858 -0.206007,-0.19389 -0.110035,0.18896 -0.146143,0.4308 -0.08024,0.53744 0.202065,0.32694 0.292461,0.21845 0.286247,-0.34355 z m 92.039633,-0.50011 c 0.008,-0.087 -0.0742,-0.10376 -0.1817,-0.0373 -0.10748,0.0664 -0.18924,0.31346 -0.18169,0.54896 0.0132,0.41282 0.0198,0.41416 0.18169,0.0373 0.0924,-0.21497 0.17415,-0.46201 0.1817,-0.54896 z M 19.536674,91.13407 c -0.07188,-0.28641 -0.17467,-0.47677 -0.228413,-0.42302 -0.05374,0.0537 -0.0389,0.33204 0.03298,0.61845 0.07188,0.2864 0.174667,0.47676 0.22841,0.42302 0.05374,-0.0537 0.0389,-0.33205 -0.03298,-0.61845 z m 3.711598,-0.25505 c 0.04178,-0.43372 -0.0099,-0.84163 -0.11479,-0.90647 -0.114748,-0.0709 -0.190747,0.28901 -0.190747,0.90337 0,1.17149 0.192809,1.17344 0.305537,0.003 z m 1.84419,-0.25865 c 0,-0.84904 -0.06164,-1.15003 -0.205949,-1.00572 -0.185205,0.18521 -0.06294,2.21738 0.133412,2.21738 0.0399,0 0.07254,-0.54525 0.07254,-1.21166 z m 8.98977,0.8208 c 0.357239,-0.23087 0.04868,-0.23087 -0.488575,0 -0.25772,0.11075 -0.291007,0.17162 -0.09771,0.1787 0.161229,0.006 0.425059,-0.0745 0.586289,-0.1787 z m 18.065242,-0.73919 c 0.06134,-0.15025 -0.08854,-0.11112 -0.374248,0.0977 -0.26211,0.19158 -0.522604,0.46111 -0.578878,0.59895 -0.06134,0.15024 0.08854,0.11111 0.374248,-0.0977 0.26211,-0.19159 0.522604,-0.46111 0.578878,-0.59895 z m -37.865578,0.31169 c -0.06239,-0.15591 -0.108695,-0.1096 -0.118072,0.11807 -0.0085,0.20601 0.0377,0.32144 0.102643,0.2565 0.06494,-0.0649 0.07188,-0.2335 0.01543,-0.37457 z m 0.570437,-0.5805 c -0.354946,-0.50675 -0.421051,-0.34063 -0.101815,0.25587 0.116195,0.21711 0.25708,0.34893 0.313078,0.29293 0.056,-0.056 -0.03907,-0.30296 -0.211263,-0.5488 z m 2.617444,-0.30379 c -0.212942,-0.33209 -0.218457,-0.33166 -0.111548,0.009 0.06186,0.19689 0.119416,0.46072 0.127901,0.58629 0.01114,0.16478 0.04217,0.16238 0.111546,-0.009 0.05287,-0.13031 -0.0047,-0.39414 -0.127899,-0.58629 z m 1.173503,0.53007 c 0,-0.10749 -0.09313,-0.19543 -0.206964,-0.19543 -0.11383,0 -0.152611,0.0879 -0.08618,0.19543 0.06643,0.10749 0.159565,0.19543 0.206964,0.19543 0.0474,0 0.08618,-0.0879 0.08618,-0.19543 z m 53.30347,-0.13472 c -0.188101,-0.0491 -0.495903,-0.0491 -0.684005,0 -0.1881,0.0491 -0.0342,0.0894 0.342002,0.0894 0.376203,0 0.530104,-0.0402 0.342003,-0.0894 z M 20.426004,89.74582 c -0.23038,-0.39618 -0.286013,-0.26938 -0.09743,0.22207 0.06702,0.17466 0.163026,0.27639 0.213343,0.22607 0.05032,-0.0503 -0.0018,-0.25198 -0.115915,-0.44814 z m 1.759263,-0.50649 c -0.193011,-0.19158 -0.215458,-0.16913 -0.109402,0.1094 0.07339,0.19273 0.182666,0.3012 0.242837,0.24103 0.06017,-0.0602 1.25e-4,-0.21787 -0.133435,-0.35043 z m 0.479707,-0.0991 c -0.336518,-0.32232 -0.340683,-0.31816 -0.09348,0.0935 0.142302,0.23695 0.300795,0.38876 0.352209,0.33735 0.05141,-0.0514 -0.06501,-0.24529 -0.25873,-0.43083 z m -3.399577,-0.0865 c -0.140232,-0.14024 -0.231258,-0.15178 -0.231258,-0.0293 0,0.26085 0.231118,0.49197 0.361545,0.36154 0.05554,-0.0555 -0.0031,-0.20504 -0.130287,-0.33223 z m -4.921572,-0.82379 c 0,-0.0464 -0.285816,-0.27434 -0.635147,-0.50649 l -0.635146,-0.42209 0.548329,0.5065 c 0.528229,0.48792 0.721964,0.60119 0.721964,0.42208 z m 0.39086,-0.30645 c 0,-0.10748 -0.09313,-0.19543 -0.206964,-0.19543 -0.11383,0 -0.152612,0.0879 -0.08618,0.19543 0.06643,0.10749 0.159564,0.19543 0.206963,0.19543 0.0474,0 0.08618,-0.0879 0.08618,-0.19543 z m 1.754948,-0.10244 c -0.135964,-0.16382 -0.298087,-0.24698 -0.360272,-0.1848 -0.06218,0.0622 0.0163,0.19488 0.174421,0.29488 0.41372,0.26164 0.467776,0.22962 0.185851,-0.11008 z m -6.145695,-2.81658 c -0.173547,-0.33561 -0.267854,-0.68735 -0.20957,-0.78166 0.05828,-0.0943 -0.0495,-0.1308 -0.2395257,-0.0811 -0.190023,0.0497 -0.5199323,-0.076 -0.733131,-0.27936 -0.3516179,-0.33535 -0.4116787,-0.3409 -0.6464141,-0.0597 -0.1423293,0.1705 -0.2030964,0.20006 -0.135039,0.0657 0.073834,-0.14576 -0.00377,-0.24428 -0.1924706,-0.24428 -0.1739168,0 -0.2678199,0.0783 -0.2086737,0.174 0.059146,0.0957 -0.1910026,0.23 -0.5558865,0.29846 -0.7089551,0.133 -1.1453073,0.70012 -0.5386856,0.70012 0.1901017,0 0.4291859,-0.0765 0.5312983,-0.16998 0.2981467,-0.27297 1.6847474,-0.43298 1.5259861,-0.1761 -0.086773,0.1404 -0.019876,0.17322 0.1894121,0.0929 0.31952,-0.12261 1.3039917,0.71867 1.3039917,1.11433 0,0.0996 0.05046,0.13068 0.112124,0.069 0.06167,-0.0617 -0.02987,-0.38671 -0.203416,-0.72232 z m 0.873011,0.18301 c 0,-0.10749 -0.09313,-0.19543 -0.206964,-0.19543 -0.11383,0 -0.152611,0.0879 -0.08618,0.19543 0.06643,0.10748 0.159564,0.19543 0.206963,0.19543 0.0474,0 0.08618,-0.0879 0.08618,-0.19543 z M 6.1357748,83.99183 c 0,-0.10749 -0.087943,-0.14108 -0.19543,-0.0746 -0.1074857,0.0664 -0.1954297,0.20872 -0.1954297,0.31621 0,0.10749 0.08794,0.14108 0.1954297,0.0746 0.1074866,-0.0664 0.19543,-0.20873 0.19543,-0.31621 z m 7.1897492,0.14129 c -0.138596,-0.14994 -0.327339,-0.22689 -0.419429,-0.171 -0.09209,0.0559 -0.04812,0.17724 0.09771,0.26964 0.412386,0.2613 0.600963,0.20348 0.321715,-0.0986 z m -0.659161,-0.77426 c -0.06777,-0.17661 -0.202503,-0.32111 -0.299401,-0.32111 -0.0969,0 -0.06883,0.17189 0.06237,0.38197 0.276629,0.44295 0.416575,0.40702 0.237033,-0.0609 z M 5.8784161,83.19653 c -0.06239,-0.1559 -0.108695,-0.10959 -0.118072,0.11808 -0.0085,0.20601 0.0377,0.32144 0.102643,0.2565 0.06494,-0.0649 0.071883,-0.2335 0.01543,-0.37458 z m 6.9726429,-1.23365 c 0.08575,-0.22345 -0.03704,-0.29246 -0.516523,-0.29026 l -0.629013,0.003 0.488575,0.2711 c 0.268715,0.14911 0.501151,0.27973 0.516522,0.29027 0.01537,0.0105 0.07857,-0.11276 0.140439,-0.27399 z m 53.94475,63.88949 c 0.06524,-0.17002 0.126183,-0.63172 0.135421,-1.026 0.0156,-0.66534 0.028,-0.67984 0.17258,-0.20169 0.183826,0.60793 0.04295,1.53682 -0.233069,1.53682 -0.106455,0 -0.140174,-0.13911 -0.07493,-0.30913 z m 0.647147,-0.42373 c 0.156591,-1.01478 0.253196,-1.04584 0.253196,-0.0814 0,0.44786 -0.08241,0.81429 -0.183143,0.81429 -0.101449,0 -0.132699,-0.3269 -0.07005,-0.73286 z m 0.586289,0 c 0.156592,-1.01478 0.253196,-1.04584 0.253196,-0.0814 0,0.44786 -0.08241,0.81429 -0.183142,0.81429 -0.10145,0 -0.132699,-0.3269 -0.07005,-0.73286 z m 0.468107,0.39086 c 0.01071,-0.1881 0.08989,-0.56186 0.175949,-0.83058 0.132922,-0.41505 0.1594,-0.36358 0.17595,0.342 0.01071,0.45682 -0.06846,0.83058 -0.17595,0.83058 -0.107486,0 -0.186663,-0.1539 -0.175949,-0.342 z m 0.620036,-0.43972 c 0,-0.48369 0.03811,-0.68156 0.08469,-0.43971 0.04658,0.24184 0.04658,0.63759 0,0.87943 -0.04658,0.24184 -0.08469,0.044 -0.08469,-0.43972 z m -52.844194,-6.98661 c -0.243089,-0.30996 -0.236176,-0.31688 0.07379,-0.0738 0.188101,0.14752 0.342002,0.30143 0.342002,0.34201 0,0.16084 -0.160484,0.0573 -0.415788,-0.26822 z m -0.977149,-0.58629 c -0.237313,-0.3026 -0.23237,-0.31405 0.04291,-0.0994 0.17112,0.13342 0.368992,0.18472 0.439717,0.114 0.07072,-0.0707 0.128591,-0.026 0.128591,0.0994 0,0.33459 -0.303853,0.27792 -0.611218,-0.114 z m 9.503273,-0.83058 c 0.06643,-0.10748 0.240179,-0.19542 0.386106,-0.19542 0.14593,0 0.304587,-0.10993 0.352571,-0.2443 0.04799,-0.13435 0.155789,-0.18045 0.239566,-0.10243 0.227414,0.21178 -0.28625,0.73758 -0.720561,0.73758 -0.208157,0 -0.324113,-0.0879 -0.257682,-0.19543 z m -2.856671,-2.55476 c -0.210148,-0.12988 -0.204766,-0.17772 0.02842,-0.2526 0.564546,-0.1813 1.362531,-0.26318 1.362531,-0.13983 0,0.23452 -1.130415,0.55345 -1.390948,0.39243 z m 1.669671,-0.54878 c 0.0585,-0.0947 0.328287,-0.21452 0.599532,-0.26637 0.399327,-0.0763 0.451105,-0.0436 0.272103,0.1721 -0.239984,0.28916 -1.04596,0.37633 -0.871635,0.0943 z m -0.278724,-8.40775 -0.488574,-0.1374 0.528837,-0.34853 c 0.591534,-0.38986 0.936886,-0.28556 0.936886,0.28297 0,0.39652 -0.16617,0.43103 -0.977149,0.20296 z m 2.488029,-0.93621 c -0.341774,-0.0891 -1.234175,-1.57443 -1.0541,-1.7545 0.281034,-0.28104 1.701451,0.84635 1.950254,1.54792 0.123999,0.34966 -0.125979,0.40728 -0.896154,0.20658 z m -15.417295,-8.07262 c -0.4930387,-0.66688 -0.7508177,-0.74709 -0.7508177,-0.23364 0,0.27345 -0.175558,0.36301 -0.7817186,0.39877 -1.368961,0.0808 -0.7427807,-0.75152 0.8794336,-1.16892 0.9454117,-0.24325 0.9581067,-0.25567 0.3908597,-0.38241 -0.3224587,-0.072 -0.9820345,-0.14275 -1.4657232,-0.15711 -0.6335298,-0.0188 -0.7979228,-0.0777 -0.5879228,-0.21041 0.2382211,-0.15061 0.2453662,-0.23045 0.039088,-0.43673 -0.2516466,-0.25165 -0.3327102,-0.27946 -0.949458,-0.32571 -0.4366031,-0.0327 -0.197535,-0.24454 0.5736519,-0.50821 0.9912703,-0.33891 3.6207031,-0.15029 4.1614941,0.29852 0.14507,0.1204 0.361478,0.15852 0.480908,0.0847 0.125376,-0.0775 0.262514,0.0393 0.324498,0.27633 0.109423,0.41843 0.367582,0.54682 0.485199,0.24131 0.03583,-0.0931 0.24103,-0.0992 0.456003,-0.0137 0.370539,0.14739 0.367999,0.15619 -0.04885,0.16921 -0.740815,0.0232 -0.489077,0.38654 0.427681,0.61738 0.477069,0.12013 1.021785,0.38901 1.210479,0.59752 0.328922,0.36345 0.327402,0.37353 -0.03682,0.24421 -0.311702,-0.11068 -0.336048,-0.0876 -0.135615,0.12839 0.365419,0.39383 0.304833,0.51662 -0.371165,0.75228 -0.879329,0.30653 -0.947986,0.28031 -0.947986,-0.36203 0,-0.63728 -0.429287,-0.99133 -1.015959,-0.83791 -0.236922,0.062 -0.332533,0.20631 -0.260676,0.39357 0.166956,0.43508 -0.460222,1.02092 -1.092961,1.02092 -0.384666,0 -0.680534,-0.17636 -0.983612,-0.58629 z m 0.812621,-0.57476 c 0,-0.10114 -0.08794,-0.23825 -0.19543,-0.30468 -0.107486,-0.0664 -0.19543,0.0164 -0.19543,0.1839 0,0.16757 0.08794,0.30468 0.19543,0.30468 0.107486,0 0.19543,-0.0828 0.19543,-0.1839 z m 11.634497,-0.004 c -0.183632,-0.20292 -0.330038,-0.75515 -0.354924,-1.33875 -0.03437,-0.80595 -0.116103,-1.01418 -0.433221,-1.10367 -0.355954,-0.10045 -0.329774,-0.1632 0.293145,-0.70266 1.068043,-0.92495 1.136961,-0.97145 1.909831,-1.28857 0.400658,-0.16439 1.124302,-0.54994 1.608094,-0.85676 0.766859,-0.48636 1.068397,-0.55788 2.352138,-0.55788 1.296872,0 1.472512,0.0427 1.472512,0.3578 0,0.19679 -0.09898,0.31982 -0.219956,0.2734 -0.120977,-0.0464 -0.332758,0.0515 -0.470626,0.21763 -0.137868,0.16613 -0.371817,0.30204 -0.519884,0.30204 -0.148069,0 -0.269216,0.13468 -0.269216,0.29928 0,0.16461 -0.153901,0.3499 -0.342002,0.41178 -0.188102,0.0619 -0.605833,0.22432 -0.928292,0.36098 -0.322459,0.13666 -0.718204,0.2897 -0.879434,0.34009 -0.161229,0.0504 0.608275,0.0493 1.710011,-0.002 1.417913,-0.0665 2.003155,-0.0293 2.003155,0.12756 0,0.12185 -0.153901,0.2285 -0.342002,0.23698 -0.20431,0.009 -0.24365,0.0551 -0.09771,0.114 0.378977,0.15292 0.287925,0.45687 -0.136862,0.45687 -0.209631,0 -0.466866,0.15316 -0.571632,0.34037 -0.263763,0.47132 -0.496118,0.17594 -0.23921,-0.3041 0.245824,-0.45933 -0.03144,-0.62257 -1.057476,-0.62257 -0.89626,0 -1.662396,0.78209 -1.023982,1.0453 0.163995,0.0676 0.06764,0.26259 -0.293144,0.5932 -0.619636,0.56781 -0.682019,0.7722 -0.19543,0.64028 1.174074,-0.3183 1.416866,-0.32536 1.416866,-0.0412 0,0.17814 -0.113529,0.24717 -0.293145,0.17824 -0.161229,-0.0619 -0.293145,-0.0272 -0.293145,0.0771 0,0.10427 -0.562452,0.23473 -1.249892,0.28991 -0.687442,0.0552 -1.369003,0.17468 -1.514581,0.26555 -0.446397,0.27865 -0.713991,0.25038 -1.039981,-0.10983 z m 2.241016,-0.68423 c 0,-0.05 -0.197872,-0.19628 -0.439717,-0.32514 -0.398719,-0.21246 -0.414709,-0.20399 -0.171501,0.0908 0.249726,0.30272 0.611218,0.44129 0.611218,0.2343 z m -0.257359,-1.50924 c -0.06238,-0.1559 -0.108694,-0.1096 -0.118071,0.11807 -0.0085,0.20601 0.0377,0.32144 0.102644,0.2565 0.06494,-0.0649 0.07188,-0.2335 0.01542,-0.37457 z M 2.4226091,100.82179 c 0.382724,-0.24733 0.641436,-0.24733 0.488575,0 -0.06643,0.10749 -0.269493,0.19409 -0.451251,0.19244 -0.284795,-0.003 -0.289953,-0.0292 -0.03732,-0.19244 z"
       id="path408" /></g></svg>
